<?xml version="1.0" encoding="UTF-8"?>
<svg width="375px" height="250px" viewBox="0 0 375 250" version="1.1" xmlns="http://www.w3.org/2000/svg" xmlns:xlink="http://www.w3.org/1999/xlink" aria-hidden="true" focusable="false">
    <title>Group</title>
    <g id="Cards---Feature-18039" stroke="none" stroke-width="1" fill="none" fill-rule="evenodd">
        <g transform="translate(-1494.000000, -1125.000000)" id="Group">
            <g transform="translate(1494.000000, 1125.000000)">
                <rect id="Image" fill="#212121" x="0" y="0" width="375" height="250"></rect>
                <g id="UOL-Logo-" transform="translate(48.000000, 72.000000)" fill="#FFFBF5">
                    <path d="M265.611943,17.2522667 L266.296005,17.2522667 L266.296005,16.6240329 L265.201507,16.6240329 L265.201507,18.489404 L265.621716,18.489404 L265.611943,17.2522667 Z M263.608621,17.2522667 L264.263366,17.2522667 L264.263366,16.6240329 L263.168867,16.6240329 L263.168867,18.489404 L263.608621,18.489404 L263.608621,17.2522667 Z M228.01789,0 L228.01789,49.96875 L254.491061,49.96875 L254.491061,34.9394645 L259.005866,34.9394645 L259.005866,49.96875 L259.631293,49.96875 L259.631293,33.5380198 L267.859573,33.5380198 L267.859573,49.96875 L268.416595,49.96875 L268.416595,34.9394645 L272.941171,34.9394645 L272.941171,49.96875 L279,49.96875 L279,0 L228.01789,0 Z M263.716116,8.45699347 L268.240693,11.1632314 L259.211084,11.1632314 L263.716116,8.45699347 Z M259.171995,11.6754836 L268.250466,11.6754836 L268.729308,14.9616296 L258.722469,14.9616296 L259.171995,11.6754836 Z M271.954169,34.4175471 L268.416595,34.4175471 L268.416595,32.9967722 L259.005866,32.9967722 L259.005866,34.4175471 L255.478064,34.4175471 L255.478064,31.2763781 L256.113264,31.2763781 L256.113264,20.8960227 L257.090494,20.8960227 L257.090494,15.5125423 L270.322194,15.5125423 L270.322194,20.8960227 L271.299424,20.8960227 L271.299424,31.2763781 L271.905307,31.2763781 L271.954169,34.4175471 Z M265.924657,31.2763781 L266.667352,31.2763781 L266.667352,24.3948017 L268.328644,24.3948017 L268.328644,23.1576644 L265.885568,23.1576644 L265.924657,31.2763781 Z M258.292488,22.0075133 L269.15929,22.0075133 L269.686994,21.3212887 L257.833189,21.3212887 L258.292488,22.0075133 Z M262.494578,31.2763781 L263.247046,31.2763781 L263.247046,24.3948017 L264.898565,24.3948017 L264.898565,23.1576644 L262.475034,23.1576644 L262.494578,31.2763781 Z M261.585754,17.2522667 L262.250271,17.2522667 L262.250271,16.6240329 L261.155773,16.6240329 L261.155773,18.489404 L261.585754,18.489404 L261.585754,17.2522667 Z M259.074272,31.2763781 L259.826739,31.2763781 L259.826739,24.3948017 L261.468487,24.3948017 L261.468487,23.1576644 L259.035183,23.1576644 L259.074272,31.2763781 Z M263.745433,35.6740147 C262.477116,35.6740147 261.448942,36.6909134 261.448942,37.9453216 C261.448942,39.1997297 262.477116,40.2166284 263.745433,40.2166284 C265.013751,40.2166284 266.041925,39.1997297 266.041925,37.9453216 C266.041925,37.3429335 265.799974,36.7652178 265.369298,36.3392651 C264.938622,35.9133125 264.354501,35.6740147 263.745433,35.6740147 L263.745433,35.6740147 Z M263.745433,39.7140681 C263.016405,39.7179495 262.357143,39.2860989 262.076327,38.6206912 C261.795511,37.9552834 261.948727,37.1880298 262.464236,36.6781745 C262.979745,36.1683192 263.755506,36.0167835 264.428292,36.2945195 C265.101078,36.5722555 265.537716,37.2242879 265.533792,37.9453216 C265.536383,38.4152041 265.34881,38.8665907 265.012864,39.1988529 C264.676918,39.531115 264.220526,39.7166303 263.745433,39.7140681 L263.745433,39.7140681 Z" id="Shape" fill-rule="nonzero"></path>
                    <path d="M16.3146975,74.3995145 L16.3146975,63.2630257 L12.4488559,63.2630257 L12.4488559,74.6589496 C12.5121968,75.6871927 12.1597336,76.6985354 11.4676778,77.4743001 C10.610528,78.3070316 9.42291738,78.7286741 8.21997835,78.6273446 C7.05934182,78.6980853 5.92340128,78.2783005 5.09983206,77.4743001 C4.36950676,76.6474857 3.99030653,75.5781299 4.04015974,74.4859929 L4.04015974,63.2630257 L0.193941678,63.2630257 L0.193941678,74.7934714 C0.0722514998,76.6734845 0.73430436,78.5214561 2.02874468,79.9149111 C3.37295865,81.1928688 5.40399727,81.836652 8.15129589,81.836652 C10.8985945,81.836652 12.9983156,81.087173 14.3915885,79.7323457 C15.7119675,78.2822211 16.3896653,76.3776224 16.2754504,74.4379494 L16.3146975,74.3995145 Z" id="Path" fill-rule="nonzero"></path>
                    <path d="M38.6659341,81.5291735 L38.6659341,63.2726344 L34.8099042,63.2726344 L34.8099042,72.5834693 C34.8099042,73.3617744 34.8099042,74.5052103 34.8687749,75.4180372 L34.8099042,75.4180372 C34.2996916,74.6685583 33.8287262,73.928688 33.0535955,73.0254698 L25.2041709,63.2726344 L21.2794586,63.2726344 L21.2794586,81.5291735 L25.1453002,81.5291735 L25.1453002,71.5169031 C25.1453002,70.6905545 25.1453002,69.5951622 25.0766177,68.9802051 L25.1453002,68.9802051 C25.6849481,69.7777276 26.2147843,70.4887717 26.9212325,71.3823813 L35.0257634,81.5291735 L38.6659341,81.5291735 Z" id="Path"></path>
                    <polygon id="Path" fill-rule="nonzero" points="47.7908902 81.5291735 47.7908902 63.2630257 43.8956132 63.2630257 43.8956132 81.5291735 47.7908902 81.5291735"></polygon>
                    <path d="M68.5329948,63.2630257 L64.6082825,63.2630257 L60.3892167,73.083122 C59.8790041,74.3034275 59.4080386,75.3699937 59.1431206,76.3596903 L59.0940617,76.3596903 C58.7114022,75.3315589 58.2894956,74.1689056 57.8087184,72.9774262 L54.0115592,63.2630257 L49.7532464,63.2630257 L57.4162471,81.6636953 L60.3009107,81.6636953 L68.5329948,63.2630257 Z" id="Path" fill-rule="nonzero"></path>
                    <polygon id="Path" fill-rule="nonzero" points="81.5630396 81.5291735 81.5630396 78.4159531 74.6359224 78.4159531 74.6359224 73.7557313 80.5818616 73.7557313 80.5818616 70.6232936 74.6359224 70.6232936 74.6359224 66.3666374 80.562238 66.3666374 81.5826632 63.2630257 70.760269 63.2630257 70.760269 81.5291735 81.5630396 81.5291735"></polygon>
                    <path d="M100.195611,81.5291735 C97.389442,76.8689517 95.5840744,73.7845574 94.6323316,73.2560787 L94.6323316,73.2560787 C96.6350863,72.5017555 97.9755157,70.6389549 98.0272078,68.5382046 C98.0272078,65.7132454 96.2316519,63.3014606 91.2472673,63.3014606 L85.8017289,63.3014606 L85.8017289,81.5579996 L89.7264412,81.5579996 L89.7264412,74.4667755 L91.1000905,74.4667755 C91.7771034,74.7262105 92.9054582,76.7824733 95.7410629,81.5291735 L100.195611,81.5291735 Z M94.1809897,68.8937267 C94.197424,69.6383875 93.9012294,70.3570538 93.3615693,70.8819122 C92.8219092,71.4067706 92.086029,71.6918717 91.3257615,71.6706424 L89.6871941,71.6706424 L89.6871941,66.4146809 L91.3257615,66.4146809 C93.1605645,66.4146809 94.1809897,67.4908558 94.1809897,68.8937267 Z" id="Shape"></path>
                    <path d="M113.775116,76.3789077 C113.775116,70.6136849 105.749079,70.9307721 105.749079,67.7310734 C105.749079,66.6741159 106.828375,66.0687675 108.211836,66.0687675 C109.789452,66.1303318 111.323991,66.5904336 112.666385,67.4043775 L112.725255,64.1182005 C111.27965,63.3655889 109.662356,62.9853399 108.025412,63.0131994 C103.914276,63.0131994 101.67719,65.4442017 101.67719,68.2307261 C101.646016,69.4186504 102.065499,70.5757399 102.854604,71.4784683 C105.140749,74.0055576 109.66398,74.418732 109.66398,76.8401255 C109.66398,78.223779 108.152966,78.713823 106.769504,78.713823 C105.232003,78.6691001 103.742851,78.1774154 102.491568,77.3013434 L100.990366,80.0494329 C102.750609,81.1953124 104.822797,81.7947262 106.936305,81.7693911 C110.772711,81.7693911 113.804551,79.6939109 113.804551,76.3500816 L113.775116,76.3789077 Z" id="Path" fill-rule="nonzero"></path>
                    <polygon id="Path" fill-rule="nonzero" points="120.800351 81.5291735 120.800351 63.2630257 116.924698 63.2630257 116.924698 81.5291735 120.800351 81.5291735"></polygon>
                    <polygon id="Path" fill-rule="nonzero" points="138.795157 63.2630257 123.528026 63.2630257 123.528026 66.3666374 128.993188 66.3666374 128.993188 81.5291735 132.908088 81.5291735 132.908088 66.3666374 137.912097 66.3666374 138.795157 63.2630257"></polygon>
                    <path d="M155.857844,63.2630257 L151.805578,63.2630257 L148.95035,68.4132915 C148.528443,69.1819879 147.969172,70.1620757 147.606136,70.9884244 L147.557077,70.9884244 C147.164606,70.1620757 146.575899,69.1339443 146.183428,68.365248 L143.338011,63.2630257 L139.060075,63.2630257 L145.526038,74.2938188 L145.526038,81.5291735 L149.401692,81.5291735 L149.401692,74.351471 L155.857844,63.2630257 Z" id="Path" fill-rule="nonzero"></path>
                    <path d="M182.693064,72.3624691 C182.856849,69.8225754 181.888762,67.3377917 180.038985,65.5502562 C178.189208,63.7627208 175.639247,62.8478329 173.048084,63.0420255 C170.452683,62.977696 167.944383,63.9609451 166.111155,65.761289 C164.325896,67.6003229 163.35592,70.0562467 163.412915,72.593078 C163.321486,75.2279833 164.394163,77.7736359 166.356449,79.5786064 C170.427882,82.718132 176.222422,82.5066053 180.043883,79.0789538 C181.7906,77.2647963 182.729483,74.8451903 182.653817,72.3528604 L182.693064,72.3624691 Z M178.581928,72.4489475 C178.581928,76.4557774 176.236912,78.7426491 173.048084,78.7426491 C169.859255,78.7426491 167.46518,76.4557774 167.46518,72.4489475 C167.46518,68.4421176 169.820008,66.1552459 173.048084,66.1552459 C176.276159,66.1552459 178.581928,68.5093785 178.581928,72.4489475 Z" id="Shape"></path>
                    <polygon id="Path" fill-rule="nonzero" points="197.136005 63.2630257 186.284176 63.2630257 186.284176 81.5291735 190.179453 81.5291735 190.179453 73.8133836 196.076333 73.8133836 196.066521 70.7001632 190.179453 70.7001632 190.179453 66.3666374 196.145016 66.3666374 197.136005 63.2630257"></polygon>
                    <polygon id="Path" fill-rule="nonzero" points="216.975426 81.5099561 216.975426 78.3775183 210.421157 78.3775183 210.421157 63.3014606 206.574938 63.3014606 206.574938 81.5099561 216.975426 81.5099561"></polygon>
                    <polygon id="Path" fill-rule="nonzero" points="230.290013 81.5099561 230.290013 78.4063444 223.392331 78.4063444 223.392331 73.7557313 229.318646 73.7557313 229.318646 70.6329023 223.392331 70.6329023 223.392331 66.3858548 229.289211 66.3858548 230.319448 63.3014606 219.516677 63.3014606 219.516677 81.5099561 230.290013 81.5099561"></polygon>
                    <polygon id="Path" fill-rule="nonzero" points="244.418977 81.5099561 244.418977 78.4063444 237.521295 78.4063444 237.521295 73.7557313 243.457422 73.7557313 243.457422 70.6329023 237.521295 70.6329023 237.521295 66.3858548 243.427987 66.3858548 244.428789 63.3014606 233.645642 63.3014606 233.645642 81.5099561 244.418977 81.5099561"></polygon>
                    <path d="M264.336892,72.2471647 C264.336892,66.8086378 260.608415,63.3014606 253.96584,63.3014606 L247.774606,63.3014606 L247.774606,81.5099561 L253.661674,81.5099561 C260.117826,81.5099561 264.376139,77.8490395 264.376139,72.2471647 L264.336892,72.2471647 Z M260.186509,72.3528604 C260.186509,75.5429504 258.381141,78.3775183 253.779416,78.3775183 L251.650259,78.3775183 L251.650259,66.443507 L253.710733,66.443507 C257.978858,66.443507 260.186509,68.7688136 260.186509,72.3528604 L260.186509,72.3528604 Z" id="Shape"></path>
                    <path d="M278.732038,76.1007449 C278.732038,70.3355221 270.725625,70.6430006 270.725625,67.5009542 C270.725625,66.434388 271.795109,65.8290396 273.188382,65.8290396 C274.757804,65.894383 276.284252,66.3507768 277.623307,67.1550408 L277.623307,63.8880812 C276.179099,63.1318615 274.560835,62.7513841 272.923464,62.7830801 C268.831951,62.7830801 266.594865,65.2236912 266.594865,67.9813894 C266.569126,69.1718321 266.995711,70.329222 267.791902,71.2291316 C270.058424,73.7466123 274.571843,74.111743 274.571843,76.5715715 C274.571843,77.9552249 273.041205,78.4452689 271.687179,78.4452689 C270.154918,78.4049394 268.670762,77.9126457 267.428867,77.0327893 L265.927664,79.7712701 C267.683563,80.9185849 269.753109,81.5182236 271.863791,81.4912283 C275.680574,81.4912283 278.682979,79.4157481 278.682979,76.1007449 L278.732038,76.1007449 Z" id="Path" fill-rule="nonzero"></path>
                </g>
            </g>
        </g>
    </g>
</svg>