<?xml version="1.0" encoding="UTF-8"?>
<svg width="32px" height="32px" viewBox="0 0 32 32" version="1.1" xmlns="http://www.w3.org/2000/svg" xmlns:xlink="http://www.w3.org/1999/xlink">
    <title>UOL icon </title>
    <g id="Cookies---V1.5" stroke="none" stroke-width="1" fill="none" fill-rule="evenodd">
        <g id="cookies-prefrences-desktop---accordian-open-" transform="translate(-1125.000000, -244.000000)" fill="#FFFFFF" fill-rule="nonzero">
            <path d="M1148,269 L1148,270 L1147,270 L1147,269 L1148,269 Z M1147,268 L1147,269 L1146,269 L1146,268 L1147,268 Z M1149,268 L1149,269 L1148,269 L1148,268 L1149,268 Z M1148,267 L1148,268 L1147,268 L1147,267 L1148,267 Z M1151,259 L1151,260 L1150,260 L1150,264 L1149,264 L1149,259 L1151,259 Z M1148.5,259 L1148.5,260 L1147.5,260 L1147.5,264 L1146.5,264 L1146.5,259 L1148.5,259 Z M1146,259 L1146,260 L1145,260 L1145,264 L1144,264 L1144,259 L1146,259 Z M1151,257 L1151,258 L1144,258 L1144,257 L1151,257 Z M1151,254 L1151,255 L1150,255 L1150,256 L1149,256 L1149,254 L1151,254 Z M1148.5,254 L1148.5,255 L1147.5,255 L1147.5,256 L1146.5,256 L1146.5,254 L1148.5,254 Z M1146,254 L1146,255 L1145,255 L1145,256 L1144,256 L1144,254 L1146,254 Z M1125,244 L1125,276 L1141,276 L1141,267 L1144,267 L1144,276 L1145,276 L1145,266 L1150,266 L1150,276 L1151,276 L1151,267 L1154,267 L1154,276 L1157,276 L1157,244 L1125,244 Z M1147.6,247 L1151,250 L1144,250 L1147.6,247 Z M1143.5,250.9 L1151.4,250.9 L1151.5,252 L1143.5,252 L1143.5,250.9 Z M1154,266 L1151,266 L1151,265 L1144,265 L1144,266 L1141,266 L1141,265 L1142,265 L1142,257 L1143,257 L1143,253 L1152,253 L1152,256.9 L1153,256.9 L1153,264.9 L1154,264.9 L1154,266 Z" id="UOL-icon-"></path>
        </g>
    </g>
</svg>