<?xml version="1.0" standalone="no"?> 
<!DOCTYPE svg PUBLIC "-//W3C//DTD SVG 1.1//EN" "http://www.w3.org/Graphics/SVG/1.1/DTD/svg11.dtd" >
<svg xmlns="http://www.w3.org/2000/svg">
<defs>
  <font id="ds-icons" horiz-adv-x="48">
    <font-face font-family="ds-icons"
      units-per-em="100" ascent="100"
      descent="0" />
    <missing-glyph horiz-adv-x="0" />
    <glyph glyph-name="add"
      unicode="&#xEA01;"
      horiz-adv-x="100" d="M87.5 56.25L56.25 56.25L56.25 87.5L43.75 87.5L43.75 56.25L12.5 56.25L12.5 43.75L43.75 43.75L43.75 12.5L56.25 12.5L56.25 43.75L87.5 43.75z" />
    <glyph glyph-name="alert-danger"
      unicode="&#xEA02;"
      horiz-adv-x="100" d="M50 91.6666666666667C73.0416666666667 91.6666666666667 91.6666666666667 73.0416666666667 91.6666666666667 50C91.6666666666667 26.9583333333333 73.0416666666667 8.3333333333333 50 8.3333333333333C26.9583333333333 8.3333333333333 8.3333333333333 26.9583333333333 8.3333333333333 50C8.3333333333333 73.0416666666667 26.9583333333333 91.6666666666667 50 91.6666666666667M64.9583333333333 70.8333333333333L50 55.875L35.0416666666667 70.8333333333333L29.1666666666667 64.9583333333333L44.125 50L29.1666666666667 35.0416666666667L35.0416666666667 29.1666666666667L50 44.125L64.9583333333333 29.1666666666667L70.8333333333333 35.0416666666667L55.875 50L70.8333333333333 64.9583333333333L64.9583333333333 70.8333333333333z" />
    <glyph glyph-name="alert-info"
      unicode="&#xEA03;"
      horiz-adv-x="100" d="M54.1666666666667 62.5H45.8333333333333V70.8333333333333H54.1666666666667M54.1666666666667 29.1666666666667H45.8333333333333V54.1666666666667H54.1666666666667M50 91.6666666666667A41.66666666666667 41.66666666666667 0 0 1 8.3333333333333 50A41.66666666666667 41.66666666666667 0 0 1 50 8.3333333333333A41.66666666666667 41.66666666666667 0 0 1 91.6666666666667 50A41.66666666666667 41.66666666666667 0 0 1 50 91.6666666666667z" />
    <glyph glyph-name="alert-success"
      unicode="&#xEA04;"
      horiz-adv-x="100" d="M50 91.6666666666667A41.66666666666667 41.66666666666667 0 0 0 91.6666666666667 50A41.66666666666667 41.66666666666667 0 0 0 50 8.3333333333333A41.66666666666667 41.66666666666667 0 0 0 8.3333333333333 50A41.66666666666667 41.66666666666667 0 0 0 50 91.6666666666667M45.8333333333333 31.25L75 60.4166666666667L69.125 66.2916666666667L45.8333333333333 43.0416666666667L32.9583333333333 55.875L27.0833333333333 50L45.8333333333333 31.25z" />
    <glyph glyph-name="alert-warning"
      unicode="&#xEA05;"
      horiz-adv-x="100" d="M54.1666666666667 45.8333333333333H45.8333333333333V70.8333333333333H54.1666666666667M54.1666666666667 29.1666666666667H45.8333333333333V37.5H54.1666666666667M50 91.6666666666667A41.66666666666667 41.66666666666667 0 0 1 8.3333333333333 50A41.66666666666667 41.66666666666667 0 0 1 50 8.3333333333333A41.66666666666667 41.66666666666667 0 0 1 91.6666666666667 50A41.66666666666667 41.66666666666667 0 0 1 50 91.6666666666667z" />
    <glyph glyph-name="calendar"
      unicode="&#xEA06;"
      horiz-adv-x="100" d="M75 87.5V100H62.5V87.5H37.5V100H25V87.5H0V0H100V87.5H75zM87.5 12.5H12.5V68.75H25V56.25H37.5V68.75H62.5V56.25H75V68.75H87.5V12.5zM25 50H37.5V37.5H25V50zM43.75 50H56.25V37.5H43.75V50zM62.5 50H75V37.5H62.5V50zM25 31.25H37.5V18.75H25V31.25zM43.75 31.25H56.25V18.75H43.75V31.25zM62.5 31.25H75V18.75H62.5V31.25z" />
    <glyph glyph-name="campus-map"
      unicode="&#xEA07;"
      horiz-adv-x="100" d="M40.625 35.625L43.125 30C40.625 29.375 38.75 28.125 36.25 28.125L35 34.375C36.875 33.75 38.75 34.375 40.625 35.625zM22.5 28.125C25 27.5 27.5 26.875 29.375 26.875L29.375 33.125C27.5 33.125 25.625 33.125 23.75 33.75L22.5 28.125zM71.25 38.75C73.125 38.125 75 37.5 76.25 36.875L79.375 42.5C77.5 43.75 75 44.375 72.5 45L71.25 38.75zM58.125 43.75L60 37.5C61.875 38.125 63.75 38.75 65.625 38.75L65 45C63.125 45 60.625 44.375 58.125 43.75zM48.125 39.375C47.5 38.75 46.875 38.125 46.25 38.125L49.375 32.5C50 33.125 50.625 33.125 51.875 33.75C53.125 34.375 53.75 35 55 35.625L51.875 41.25C50.625 40.625 49.375 40 48.125 39.375zM65.625 78.125C65.625 75.625 65 73.125 63.75 71.25L50 43.75C50 43.75 36.25 71.25 35.625 71.25C35 73.125 34.375 75.625 34.375 78.125C34.375 86.875 41.25 93.75 50 93.75C58.75 93.75 65.625 86.875 65.625 78.125zM59.375 78.125C59.375 83.125 55 87.5 50 87.5C45 87.5 40.625 83.125 40.625 78.125C40.625 73.125 45 68.75 50 68.75C55 68.75 59.375 73.125 59.375 78.125zM81.25 62.5H66.875L63.75 56.25H76.875L83.75 36.25L81.25 33.75C83.75 31.875 85 30 85 30L85.625 30.625L91.25 13.125H8.75L15 31.875C15 31.875 15.625 31.875 15.625 31.25L18.75 36.25C18.125 36.875 17.5 36.875 16.875 37.5L23.125 56.25H36.25C35 58.75 34.375 60.625 33.125 62.5H18.75L0 6.25H100L81.25 62.5z" />
    <glyph glyph-name="chevron-down"
      unicode="&#xEA08;"
      horiz-adv-x="100" d="M50 28.125L19.3750000000001 58.7500000000002L28.125 67.5000000000001L50 45.6250000000001L71.875 67.5000000000001L80.6249999999999 58.7500000000002z" />
    <glyph glyph-name="chevron-left"
      unicode="&#xEA09;"
      horiz-adv-x="100" d="M60.9374999999999 19.3750000000001L30.3125 50L60.9374999999999 80.6250000000002L69.6875000000001 71.875L47.8125000000001 50L69.6875000000001 28.125z" />
    <glyph glyph-name="chevron-right"
      unicode="&#xEA0A;"
      horiz-adv-x="100" d="M39.3750000000001 19.3750000000001L30.0000000000001 28.125L51.8750000000001 50L30.0000000000001 71.875L39.3750000000001 80.6250000000002L69.9999999999999 50z" />
    <glyph glyph-name="chevron-up"
      unicode="&#xEA0B;"
      horiz-adv-x="100" d="M71.875 32.4999999999999L50 54.3749999999999L28.125 32.4999999999999L19.3750000000001 41.2500000000001L50 71.875L80.6249999999999 41.2500000000001z" />
    <glyph glyph-name="close"
      unicode="&#xEA0C;"
      horiz-adv-x="100" d="M85.6249999999999 76.8750000000001L76.8750000000001 85.6249999999999L50 58.7500000000002L23.1249999999999 85.6249999999999L14.3750000000001 76.8750000000001L41.2500000000001 50L14.3750000000001 23.1249999999999L23.1249999999999 14.3750000000001L50 41.2500000000001L76.8750000000001 14.3750000000001L85.6249999999999 23.1249999999999L58.7499999999999 50z" />
    <glyph glyph-name="download"
      unicode="&#xEA0D;"
      horiz-adv-x="100" d="M8.7499999999999 12.5V0.6250000000001H91.2499999999998V12.5H8.7499999999999zM91.2500000000001 64.3750000000001H67.5000000000001V99.3750000000002H32.4999999999999V64.3750000000001H8.7499999999999L50 23.7500000000001L91.2500000000001 64.3750000000001z" />
    <glyph glyph-name="external"
      unicode="&#xEA0E;"
      horiz-adv-x="100" d="M75 25H25V75H43.75V87.5H12.5V12.5H87.5V43.75H75V25zM50 87.5L62.5 75L31.25 43.75L43.75 31.25L75 62.5L87.5 50V87.5H50z" />
    <glyph glyph-name="home"
      unicode="&#xEA0F;"
      horiz-adv-x="100" d="M40 7.5L40 37.5L60 37.5L60 7.5L85 7.5L85 47.5L100 47.5L50 92.5L0 47.5L15 47.5L15 7.5z" />
    <glyph glyph-name="letter"
      unicode="&#xEA10;"
      horiz-adv-x="100" d="M50 36.875L8.75 64.375L50 89.375L91.25 64.375L50 36.875zM100 63.125C100 66.875 98.125 70 95.625 71.875L50 100L4.375 71.875C1.875 70 0 66.875 0 63.125V10.625C0 5 4.375 0 10 0H90C95.625 0 100 5 100 10.625V63.125z" />
    <glyph glyph-name="mail"
      unicode="&#xEA11;"
      horiz-adv-x="100" d="M50 53.75L100 79.375V91.875C100 96.25 96.25 100 91.875 100H8.125C3.75 100 0 96.25 0 91.875V80L50 53.75zM50 40L0 65.625V8.75C0 4.375 3.75 0.625 8.125 0.625H91.25C95.625 0.625 99.3749999999999 4.375 99.3749999999999 8.75V65.625L50 40z" />
    <glyph glyph-name="marker"
      unicode="&#xEA12;"
      horiz-adv-x="100" d="M50 52.5C43.125 52.5 37.5 58.125 37.5 65S43.125 77.5 50 77.5S62.5 71.875 62.5 65S56.875 52.5 50 52.5zM50 100C30.625 100 15 84.375 15 65C15 38.75 50 0 50 0S85 38.75 85 65C85 84.375 69.375 100 50 100z" />
    <glyph glyph-name="navicon"
      unicode="&#xEA13;"
      horiz-adv-x="100" d="M12.5 81.25H87.5V68.75H12.5V81.25zM12.5 56.25H87.5V43.75H12.5V56.25zM12.5 31.25H87.5V18.75H12.5V31.25z" />
    <glyph glyph-name="news"
      unicode="&#xEA14;"
      horiz-adv-x="100" d="M93.75 93.75V12.5H6.25V93.75H93.75M100 100H0V6.25H100V100L100 100zM12.5 87.5H50V56.25H12.5V87.5zM56.25 81.25L62.5 75L93.75 75L87.5 81.25zM56.25 62.5L62.5 56.25L93.75 56.25L87.5 62.5zM12.5 43.75L18.75 37.5L93.75 37.5L87.5 43.75zM12.5 25L18.75 18.75L93.75 18.75L87.5 25z" />
    <glyph glyph-name="phone"
      unicode="&#xEA15;"
      horiz-adv-x="100" d="M19.6875 56.875C27.1875 41.25 40.9375 28.75 56.5625 20L69.0625 32.5C70.9375 34.375 72.8125 35 74.6875 33.75C80.9375 31.25 87.1875 30.625 94.6875 30.625C97.8125 30.625 100.3125 28.125 100.3125 25V6.25C100.3125 3.125 97.8125 0.625 94.6875 0.625C42.1875 0 -0.3125 42.5 -0.3125 94.375C-0.3125 97.5 2.1875 100 5.3125 100H24.6875C27.8125 100 30.3125 97.5 30.3125 94.375C30.3125 87.5 31.5625 81.25 33.4375 74.375C34.0625 72.5 33.4375 70.625 32.1875 68.75L19.6875 56.875z" />
    <glyph glyph-name="print"
      unicode="&#xEA16;"
      horiz-adv-x="100" d="M25 93.75H75V81.25H25V93.75zM93.75 75H6.25C3.125 75 0 72.5 0 68.75V37.5C0 33.75 3.125 31.25 6.25 31.25H25V6.25H75V31.25H93.75C96.875 31.25 100 33.75 100 37.5V68.75C100 72.5 96.875 75 93.75 75zM12.5 56.25C8.75 56.25 6.25 58.75 6.25 62.5S8.75 68.75 12.5 68.75S18.75 66.25 18.75 62.5S16.25 56.25 12.5 56.25zM68.75 12.5H31.25V43.75H68.75V12.5z" />
    <glyph glyph-name="profile"
      unicode="&#xEA17;"
      horiz-adv-x="100" d="M6.25 0C6.875 3.125 11.25 11.25 11.875 13.125C13.75 17.5 16.25 21.25 18.75 24.375C23.75 31.25 30 36.875 36.875 40C51.875 46.25 68.125 40.625 79.375 26.875C85.625 19.375 90.625 10 93.75 0C65.625 0 34.375 0 6.25 0zM49.375 50C36.875 50 25.625 60.625 26.25 74.375C26.25 86.875 36.25 100 50 100C62.5 100 73.125 86.875 73.125 73.125C73.125 60.625 62.5 50 49.375 50z" />
    <glyph glyph-name="remove"
      unicode="&#xEA18;"
      horiz-adv-x="100" d="M87.5 56.25L12.5 56.25L12.5 43.75L87.5 43.75z" />
    <glyph glyph-name="rss"
      unicode="&#xEA19;"
      horiz-adv-x="100" d="M0 13.75C0 6.5012626584708 5.8762626584708 0.625 13.125 0.625C20.3737373415292 0.625 26.25 6.5012626584708 26.25 13.75C26.25 20.9987373415292 20.3737373415292 26.875 13.125 26.875C5.8762626584708 26.875 0 20.9987373415292 0 13.75zM0 65.625V46.875C12.5 46.875 24.375 41.875 33.125 33.125C41.875 24.375 46.875 12.5 46.875 0H65.625C65 36.25 35.625 65.625 0 65.625zM0 100V80.625C44.375 80.625 80.625 44.375 80.625 0H100C99.375 55 54.375 100 0 100z" />
    <glyph glyph-name="search"
      unicode="&#xEA1A;"
      horiz-adv-x="100" d="M93.7499999999998 13.1250000000001L66.8749999999997 40.0000000000002C71.2499999999997 45.6250000000001 73.7499999999999 52.5000000000002 73.7499999999999 60.0000000000001C73.7499999999999 78.7500000000001 58.75 93.75 40 93.75S6.2500000000002 78.7500000000001 6.2500000000002 60.0000000000001S21.25 26.2500000000003 40 26.2500000000003C47.4999999999999 26.2500000000003 54.3750000000001 28.7500000000001 59.9999999999999 33.1250000000004L86.875 6.2500000000004L93.7499999999998 13.1250000000001zM39.9999999999997 36.2500000000001C26.8749999999995 36.2500000000001 16.2499999999996 46.875 16.2499999999996 60.0000000000001S26.8749999999995 83.7500000000002 39.9999999999997 83.7500000000002C53.1249999999998 83.7500000000002 63.7499999999997 73.1250000000003 63.7499999999997 60.0000000000001S53.1249999999998 36.2500000000001 39.9999999999997 36.2500000000001z" />
    <glyph glyph-name="share"
      unicode="&#xEA1B;"
      horiz-adv-x="100" d="M25 37.5C25 37.5 30.625 56.25 62.5 56.25V37.5L100 62.5L62.5 87.5V68.75C37.5 68.75 25 53.125 25 37.5zM68.75 25H12.5V62.5H25C26.25 63.75 26.875 65 28.125 65.625C32.5 70 37.5 73.125 43.125 75H0V12.5H81.25V38.75L68.75 30.625V25z" />
    <glyph glyph-name="social-facebook"
      unicode="&#xEA1C;"
      horiz-adv-x="100" d="M72.8124999999999 45.625L75.3125 63.125H57.8125V74.375C57.8125 79.375 59.0625 83.125 66.5625 83.125H75.9375V99.375C74.6875 99.375 68.4375 100 62.1875 100C48.4375 100 39.0625 91.875 39.0625 76.25V63.125H24.0625V45.625H39.0625V0H57.1875V45.625H72.8124999999999z" />
    <glyph glyph-name="social-google"
      unicode="&#xEA1D;"
      horiz-adv-x="100" d="M64.375 100H38.125C34.375 100 31.25 99.375 26.875 98.75S18.75 95.625 15.625 92.5C10 87.5 7.5 81.25 7.5 75C7.5 70 9.375 65 13.125 61.25C16.875 56.875 21.875 55 28.75 54.375C30 54.375 31.25 54.375 33.125 54.375C33.125 53.75 32.5 53.125 32.5 51.875C31.875 51.25 31.875 50 31.875 48.75C31.875 46.875 32.5 45 33.125 43.75C33.75 42.5 35 41.25 35.625 40C32.5 40 28.75 39.375 24.375 38.75C19.3750000000001 38.125 15 36.25 10.625 33.75C6.875 31.25 4.375 28.75 2.5 25.625C0.6250000000001 22.5 0 20 0 17.5C0 12.5 2.5 8.125 6.8750000000001 5C11.2500000000001 1.25 18.125 -0.625 27.5 -1.25C38.75 -1.25 46.875 1.25 52.5 6.875C58.125 11.875 60.625 17.5 60.625 23.75C60.625 28.125 59.375 31.875 57.5 34.375C55.625 36.875 53.125 39.375 50 41.875L46.25 46.875C45.625 47.5 45 48.125 44.375 49.375C43.75 50 43.125 51.25 43.125 52.5C43.125 53.75 43.75 55 44.375 56.25C45 57.5 45.625 58.125 46.25 58.75C47.5 60 48.75 61.25 50 62.5C51.25 63.75 51.875 65 53.125 66.25C55 68.75 56.25 73.125 56.25 77.5C56.25 80 55.625 82.5 55.625 84.375C55 86.25 53.75 88.125 53.125 89.375C52.5 91.25 51.25 91.875 50 93.125C48.75 94.375 48.125 95 47.5 95.625H55.625L64.375 100zM50 28.125C51.875 25.625 53.125 22.5 53.125 19.375C53.125 15.625 51.25 11.875 48.125 9.375C45 6.875 40 5.625 33.75 5.625C26.875 5.625 21.25 7.5 17.5 10C13.125 13.125 11.25 16.875 11.25 21.25C11.25 23.75 11.875 25.625 12.5 27.5C13.1250000000001 29.375 14.375 30.625 15.625 31.25S18.125 33.125 19.3750000000001 33.75C20.6250000000001 34.375 21.25 34.375 21.875 35C24.375 35.625 27.5 36.25 30 36.875C32.5 36.875 34.375 37.5 35 36.875C36.25 36.875 36.875 36.875 38.125 36.875C43.75 33.75 47.5 30.625 50 28.125zM45.625 66.875C45 65 44.375 63.125 43.75 61.875C41.25 59.375 38.75 58.125 35 58.125C32.5 58.125 30 58.75 27.5 60.625C25.625 62.5 23.75 64.375 22.5 66.875C20 71.875 18.125 76.875 18.125 81.875C18.125 85.625 18.75 88.75 20.625 91.875C23.125 94.375 25.625 96.25 29.375 96.25C31.875 96.25 34.375 95.625 36.25 93.75C38.125 91.875 40 90 41.25 87.5C43.75 82.5 45 76.875 45 71.875C46.25 70 45.625 68.75 45.625 66.875zM86.25 85.625L86.25 99.375L79.375 99.375L79.375 85.625L65.625 85.625L65.625 78.75L79.375 78.75L79.375 65L86.25 65L86.25 78.75L100 78.75L100 85.625z" />
    <glyph glyph-name="social-instagram"
      unicode="&#xEA1E;"
      horiz-adv-x="100" d="M50 91.2499999999998C63.1250000000001 91.2499999999998 64.9999999999998 91.2499999999998 69.9999999999998 91.2499999999998C74.9999999999999 91.2499999999998 77.4999999999998 89.9999999999999 79.3749999999998 89.3749999999997C81.8749999999998 88.1249999999998 83.125 87.4999999999997 84.9999999999998 85.6249999999996C86.8749999999998 83.7499999999995 87.4999999999997 82.4999999999996 88.7499999999998 79.9999999999997C89.375 78.1249999999997 89.9999999999998 75.6249999999998 90.6249999999999 70.6249999999997C90.6249999999999 65.6249999999997 90.6249999999999 63.7499999999996 90.6249999999999 50.6249999999998S90.6249999999999 35.6249999999999 90.6249999999999 30.6249999999999C90.6249999999999 25.6249999999998 89.375 23.1249999999999 88.7499999999998 21.2499999999999C87.4999999999999 18.75 86.8749999999998 17.4999999999997 84.9999999999998 15.625C83.1249999999997 13.7499999999999 81.8749999999998 13.1250000000001 79.3749999999998 11.8749999999999C77.4999999999998 11.2499999999997 74.9999999999999 10.6249999999999 69.9999999999998 9.9999999999998C64.9999999999998 9.9999999999998 63.1249999999998 9.9999999999998 50 9.9999999999998S35.0000000000001 9.9999999999998 30 9.9999999999998C24.9999999999999 9.9999999999998 22.5 11.2499999999997 20.625 11.8749999999999C18.1250000000001 13.1249999999998 16.8749999999998 13.7499999999999 15.0000000000002 15.625C13.125 17.5000000000001 12.5000000000003 18.75 11.25 21.2499999999999C10.6249999999998 23.1249999999999 10 25.6249999999998 9.3749999999999 30.6249999999999C9.3749999999999 35.6249999999999 9.3749999999999 37.5 9.3749999999999 50.6249999999998S9.3749999999999 65.6249999999997 9.3749999999999 70.6249999999997C9.3749999999999 75.6249999999998 10.6249999999998 78.1249999999997 11.25 79.9999999999997C12.4999999999999 82.4999999999996 13.125 83.7499999999999 15.0000000000002 85.6249999999996C16.8750000000002 87.4999999999997 18.1250000000001 88.1249999999994 20.625 89.3749999999997C22.5 89.9999999999999 24.9999999999999 90.6249999999997 30 91.2499999999998C35.0000000000001 91.2499999999998 36.8749999999999 91.2499999999998 50 91.2499999999998M50 100C36.2500000000001 100 35.0000000000001 100 29.3749999999999 99.3749999999999C23.75 99.3749999999999 20.625 98.1249999999999 17.5 96.875C14.375 95.6250000000001 11.25 93.75 8.7500000000001 91.2500000000001C6.2500000000003 88.7500000000003 4.3750000000002 85.6250000000003 3.1250000000003 82.5000000000003C1.8750000000003 79.3750000000003 1.2500000000002 75.6250000000001 0.6250000000004 70.6250000000004C0.6250000000004 65.0000000000006 3e-13 63.7500000000003 3e-13 50.0000000000004S3e-13 35.0000000000005 0.6250000000004 29.3750000000003C0.6250000000004 23.7500000000004 1.8750000000003 20.6250000000004 3.1250000000003 17.5000000000004C4.3750000000002 14.3750000000004 6.2500000000003 11.2500000000004 8.7500000000001 8.7500000000006C11.25 6.2500000000007 14.375 4.3750000000006 17.5 3.1250000000007C20.625 1.8750000000008 24.3750000000001 1.2500000000006 29.3749999999999 0.6250000000009C34.9999999999998 0.6250000000009 36.2500000000001 7e-13 50 7e-13S64.9999999999998 7e-13 70.625 0.6250000000009C76.2499999999998 0.6250000000009 79.3749999999998 1.8750000000008 82.4999999999998 3.1250000000007C85.6249999999998 4.3750000000006 88.7499999999998 6.2500000000007 91.2499999999998 8.7500000000006C93.7499999999997 11.2500000000004 95.6249999999997 14.3750000000004 96.8749999999997 17.5000000000004C98.1249999999996 20.6250000000004 98.7499999999997 24.3750000000006 99.3749999999995 29.3750000000003C99.3749999999995 35.0000000000001 99.9999999999997 36.2500000000004 99.9999999999997 50.0000000000004S99.9999999999997 65.0000000000002 99.3749999999995 70.6250000000004C99.3749999999995 76.2500000000003 98.1249999999996 79.3750000000003 96.8749999999997 82.5000000000003C95.6249999999997 85.6250000000003 93.7499999999997 88.7500000000003 91.2499999999998 91.2500000000001C88.7499999999998 93.75 85.6249999999998 95.6250000000001 82.4999999999998 96.875C79.3749999999998 98.1249999999999 75.6249999999998 98.7500000000001 70.625 99.3749999999999S63.7499999999999 100 50 100zM50 75.6249999999998C35.6249999999999 75.6249999999998 24.3749999999998 64.3749999999997 24.3749999999998 49.9999999999996S35.6249999999999 24.3749999999995 50 24.3749999999995S75.625 35.6249999999996 75.625 49.9999999999996S64.375 75.6249999999998 50 75.6249999999998zM50 33.7499999999999C40.625 33.7499999999999 33.7499999999999 41.2499999999998 33.7499999999999 50C33.7499999999999 59.375 41.2499999999998 66.2500000000001 50 66.2500000000001S66.25 58.7500000000002 66.25 50C66.25 41.2499999999998 59.375 33.7499999999999 50 33.7499999999999zM69.9999999999998 76.8749999999997C69.9999999999998 73.4232203135573 72.7982203135574 70.6249999999997 76.2499999999998 70.6249999999997C79.7017796864424 70.6249999999997 82.4999999999998 73.4232203135573 82.4999999999998 76.8749999999997C82.4999999999998 80.3267796864422 79.7017796864424 83.1249999999997 76.2499999999998 83.1249999999997C72.7982203135574 83.1249999999997 69.9999999999998 80.3267796864422 69.9999999999998 76.8749999999997z" />
    <glyph glyph-name="social-linkedin"
      unicode="&#xEA1F;"
      horiz-adv-x="100" d="M12.1875000000001 100C5.3125000000001 100 0.3125 94.375 0.3125 88.125S5.9375000000001 76.25 12.1875000000001 76.25C19.0625000000001 76.25 24.0625000000001 81.875 24.0625000000001 88.125S19.0625000000001 100 12.1875000000001 100zM2.1875 66.875H22.8125000000001V0H2.1875V66.875zM75.3125000000001 68.125C65.3125000000001 68.125 58.4375000000001 62.5 55.3125000000001 57.5H55.3125000000001V66.875H35.3125000000001V0H55.9375V33.125C55.9375 41.875 57.1875000000001 50 68.4374999999999 50C79.0625000000001 50 79.0625000000001 40 79.0625000000001 32.5V0H99.6874999999999V36.875C100.3125000000001 54.375 96.5625000000001 68.125 75.3125000000001 68.125z" />
    <glyph glyph-name="social-twitter"
      unicode="&#xEA20;"
      horiz-adv-x="100" d="M100 81.25C96.25 79.375 92.5 78.75 88.125 78.125C92.5 80.625 95.625 85 96.875 89.375C93.125 86.875 88.75 85 84.375 84.375C80.625 88.125 75 90.625 69.375 90.625C58.125 90.625 48.75 81.25 48.75 70C48.75 68.125 48.75 66.875 49.375 65.625C32.5 66.25 16.875 74.375 6.875 86.875C5 83.75 4.375 80 4.375 76.25C4.375 69.375 8.125 63.125 13.75 59.375C10.625 59.375 6.875 60.625 4.375 61.875L4.375 61.875C4.375 51.875 11.25 43.75 20.625 41.875C18.75 41.25 16.875 41.25 15 41.25C13.75 41.25 12.5 41.25 11.25 41.875C13.75 33.75 21.25 27.5 30.625 27.5C23.75 21.875 15 18.75 5 18.75C3.125 18.75 1.875 18.75 0 18.75C9.375 13.125 20 9.375 31.25 9.375C69.375 9.375 89.375 40.625 89.375 67.5C89.375 68.125 89.375 69.375 89.375 70C93.75 73.125 97.5 76.875 100 81.25z" />
    <glyph glyph-name="social-weibo"
      unicode="&#xEA21;"
      horiz-adv-x="100" d="M-0.3125 36.25C-0.3125 45 4.6875 54.375 14.6875 64.375C20.9375 70.625 27.1875 75 34.0625 77.5C37.1875 78.75 39.6875 79.375 42.1875 79.375C44.6875 79.375 46.5625 78.75 47.8125 77.5C49.0625 75.625 49.6875 73.75 49.6875 71.25C49.6875 69.375 49.0625 67.5 48.4375 65.625C48.4375 65 48.4375 64.375 48.4375 64.375C49.0625 64.375 49.0625 64.375 49.6875 64.375L50.3125 65C55.3125 66.875 60.3125 68.125 64.0625 68.125S70.9375 66.875 72.8125 65C74.0625 63.125 74.6875 61.25 74.6875 60C74.6875 58.125 74.0625 56.25 73.4375 54.375C72.8125 53.75 72.8125 53.125 73.4375 53.125C73.4375 52.5 74.0625 52.5 74.0625 52.5S74.6875 52.5 75.3125 51.875C78.4375 50.625 81.5625 49.375 84.0625 46.875C85.9375 44.375 87.1875 41.25 87.1875 38.125C87.1875 35 85.9375 31.875 84.0625 28.125C81.5625 25 78.4375 21.875 74.6875 18.75C70.9375 16.25 65.9375 13.75 60.3125 11.875C54.6875 10 48.4375 9.375 41.5625 9.375C34.6875 9.375 27.8125 10.625 21.5625 12.5C15.3125 14.375 10.3125 17.5 5.9375 21.875S-0.3125 30.625 -0.3125 36.25zM9.6875 31.875C10.3125 26.25 13.4375 21.875 19.6875 18.75C24.6875 16.25 30.3125 15 36.5625 15C38.4375 15 39.6875 15 41.5625 15C49.6875 16.25 56.5625 18.75 62.1875 23.125C67.1875 26.875 69.6875 31.875 69.6875 36.25C69.6875 36.875 69.6875 37.5 69.6875 37.5C69.0625 43.125 65.9375 47.5 59.6875 50.625C54.6875 53.125 49.0625 54.375 42.8125 54.375C40.9375 54.375 39.6875 54.375 37.8125 54.375C32.1875 53.75 27.1875 52.5 22.8125 50S14.6875 45 12.8125 41.875C10.9375 38.75 9.6875 36.25 9.6875 33.125C9.6875 33.125 9.6875 32.5 9.6875 31.875zM22.8125 26.875C22.1875 28.75 21.5625 30 21.5625 31.875C21.5625 33.75 22.1875 35.625 22.8125 37.5C24.6875 41.25 27.1875 43.75 30.9375 45C33.4375 46.25 35.9375 46.875 38.4375 46.875C39.6875 46.875 41.5625 46.875 42.8125 46.25C47.1875 45 49.6875 43.125 51.5625 39.375C52.1875 37.5 52.8125 35.625 52.8125 33.75C52.8125 31.875 52.1875 30 51.5625 28.75C49.6875 25 47.1875 21.875 42.8125 20.625C40.3125 19.375 37.8125 19.375 35.9375 19.375C34.0625 19.375 32.1875 19.375 30.3125 20C27.1875 21.25 24.0625 23.75 22.8125 26.875zM27.1875 28.75C27.8125 27.5 28.4375 26.25 29.6875 25.625C30.3125 25 30.9375 25 31.5625 25C32.1875 25 32.8125 25 33.4375 25.625C34.6875 26.25 35.9375 26.875 37.1875 28.125C37.8125 28.75 37.8125 30 37.8125 30.625C37.8125 31.25 37.8125 31.25 37.8125 31.875C37.1875 33.125 36.5625 34.375 35.3125 34.375C34.6875 34.375 34.0625 35 33.4375 35C32.8125 35 32.1875 35 31.5625 34.375C30.3125 33.75 29.0625 33.125 28.4375 31.875C27.8125 31.25 27.8125 30 27.8125 29.375C27.1875 29.375 27.1875 28.75 27.1875 28.75zM38.4375 35C38.4375 34.375 39.0625 34.375 39.6875 33.75C39.6875 33.75 40.3125 33.75 40.3125 33.75S40.9375 33.75 40.9375 33.75C41.5625 33.75 42.1875 34.375 42.1875 35C42.1875 35.625 42.8125 36.25 42.1875 36.25C42.1875 36.875 41.5625 36.875 40.9375 37.5C40.3125 37.5 39.6875 37.5 39.0625 37.5C38.4375 37.5 37.8125 36.875 37.8125 36.25C39.0625 36.25 38.4375 35.625 38.4375 35L38.4375 35zM64.6875 85.625C64.6875 85.625 64.6875 86.25 64.6875 86.25C64.6875 86.875 64.6875 87.5 65.3125 88.125C65.9375 88.75 66.5625 89.375 67.8125 90C69.6875 90.625 71.5625 90.625 73.4375 90.625C75.9375 90.625 79.0625 90 81.5625 89.375C85.9375 88.125 89.6875 85.625 93.4375 81.875C96.5625 78.125 99.0625 74.375 99.6875 69.375C100.3125 67.5 100.3125 65.625 100.3125 63.75C100.3125 61.25 99.6875 58.125 99.0625 55.625V55.625C98.4375 54.375 97.8125 53.75 97.1875 53.75C96.5625 53.75 95.9375 53.125 95.3125 53.125C94.6875 53.125 94.6875 53.125 94.0625 53.125C92.8125 53.75 92.1875 54.375 92.1875 55C92.1875 55.625 91.5625 56.25 91.5625 56.875C91.5625 57.5 91.5625 57.5 91.5625 58.125V58.125C92.1875 60 92.1875 61.875 92.1875 63.75C92.1875 65 92.1875 66.25 91.5625 67.5C90.9375 70.625 89.0625 73.75 87.1875 76.25C84.6875 78.75 82.1875 80.625 79.0625 81.875C77.1875 82.5 75.3125 82.5 73.4375 82.5C72.1875 82.5 70.9375 82.5 69.6875 81.875C69.6875 81.875 69.0625 81.875 69.0625 81.875C68.4375 81.875 67.8125 81.875 67.1875 82.5C65.3125 83.75 64.6875 84.375 64.6875 85.625zM67.8125 72.5C67.8125 72.5 67.8125 73.125 67.8125 73.125C67.8125 73.75 67.8125 74.375 68.4375 75C69.0625 75.625 69.6875 76.25 70.3125 76.25C71.5625 76.25 72.1875 76.875 73.4375 76.875C77.1875 76.875 80.3125 75.625 82.8125 72.5C84.6875 70.625 85.3125 68.75 85.9375 66.25C85.9375 65.625 85.9375 64.375 85.9375 63.75C85.9375 62.5 85.9375 61.25 85.3125 60C85.3125 59.375 84.6875 58.75 83.4375 58.125C82.8125 58.125 82.1875 57.5 82.1875 57.5C81.5625 57.5 81.5625 57.5 80.9375 57.5C80.3125 57.5 79.6875 58.125 79.0625 59.375C79.0625 60 78.4375 60.625 78.4375 60.625C78.4375 61.25 78.4375 61.25 78.4375 61.875C78.4375 62.5 79.0625 63.125 79.0625 63.75C79.0625 65 78.4375 66.875 77.1875 67.5C75.9375 68.75 74.6875 69.375 72.8125 69.375C72.1875 69.375 71.5625 69.375 70.9375 69.375C70.9375 69.375 70.3125 69.375 70.3125 69.375C69.6875 69.375 69.0625 69.375 68.4375 70C68.4375 71.25 68.4375 71.875 67.8125 72.5z" />
    <glyph glyph-name="social-youtube"
      unicode="&#xEA22;"
      horiz-adv-x="100" d="M99.375 63.125C98.75 70 98.125 72.5 96.875 75.625C95 79.375 91.875 81.875 88.125 81.875C85 82.5 73.75 82.5 62.5 83.125C43.75 83.75 13.75 82.5 9.375 81.875C7.5 81.25 6.25 80.625 5 79.375C2.5 76.875 1.25 73.125 0.625 68.75C-0.625 57.5 -0.625 44.375 0.625 32.5C1.25 27.5 2.5 24.375 4.375 21.875C5.625 20 8.125 18.75 10 18.125C11.25 18.125 18.75 17.5 29.375 16.875C31.25 16.875 35 16.875 38.75 16.875C46.25 16.875 59.375 16.875 67.5 16.875C72.5 16.875 81.875 17.5 83.75 17.5C84.375 17.5 85.625 17.5 86.25 17.5C89.375 17.5 91.25 18.125 93.125 20C95.625 21.875 97.5 25 98.125 29.375C98.75 33.125 99.375 40 99.375 47.5C100 54.375 100 57.5 99.375 63.125L99.375 63.125zM36.875 35.625V64.375L63.125 50L36.875 35.625L36.875 35.625z" />
    <glyph glyph-name="sort"
      unicode="&#xEA23;"
      horiz-adv-x="100" d="M75 37.5L50 0L25 37.5zM25 62.5L50 100L75 62.5z" />
    <glyph glyph-name="star"
      unicode="&#xEA24;"
      horiz-adv-x="100" d="M50 21.25L80.625 2.5L72.5 37.5L100 61.25L63.75 64.375L50 97.5L36.25 64.375L0 61.25L27.5 37.5L19.375 2.5z" />
    <glyph glyph-name="triangle-down"
      unicode="&#xEA25;"
      horiz-adv-x="100" d="M75 68.75L50 31.25L25 68.75z" />
    <glyph glyph-name="triangle-left"
      unicode="&#xEA26;"
      horiz-adv-x="100" d="M68.75 25L31.25 50L68.75 75z" />
    <glyph glyph-name="triangle-right"
      unicode="&#xEA27;"
      horiz-adv-x="100" d="M31.25 75L68.75 50L31.25 25z" />
    <glyph glyph-name="triangle-up"
      unicode="&#xEA28;"
      horiz-adv-x="100" d="M25 31.25L50 68.75L75 31.25z" />
    <glyph glyph-name="action-add"
      unicode="&#xEA29;"
      horiz-adv-x="100" d="M79.1666666666667 45.8333333333333H54.1666666666667V20.8333333333333H45.8333333333333V45.8333333333333H20.8333333333333V54.1666666666667H45.8333333333333V79.1666666666667H54.1666666666667V54.1666666666667H79.1666666666667V45.8333333333333z" />
    <glyph glyph-name="action-bookmark"
      unicode="&#xEA2A;"
      horiz-adv-x="100" d="M70.8333333333333 87.5H29.1666666666667C24.5833333333333 87.5 20.875 83.75 20.875 79.1666666666667L20.8333333333333 12.5L50 25L79.1666666666667 12.5V79.1666666666667C79.1666666666667 83.75 75.4166666666667 87.5 70.8333333333333 87.5z" />
    <glyph glyph-name="action-call"
      unicode="&#xEA2B;"
      horiz-adv-x="100" d="M27.5833333333333 55.0416666666667C33.5833333333333 43.25 43.25 33.625 55.0416666666667 27.5833333333333L64.2083333333333 36.75C65.3333333333333 37.875 67 38.25 68.4583333333333 37.75C73.125 36.2083333333333 78.1666666666667 35.375 83.3333333333333 35.375C85.625 35.375 87.5 33.5 87.5 31.2083333333333V16.6666666666667C87.5 14.375 85.625 12.5 83.3333333333333 12.5C44.2083333333333 12.5 12.5 44.2083333333333 12.5 83.3333333333333C12.5 85.625 14.375 87.5 16.6666666666667 87.5H31.25C33.5416666666667 87.5 35.4166666666667 85.625 35.4166666666667 83.3333333333333C35.4166666666667 78.125 36.25 73.125 37.7916666666667 68.4583333333333C38.25 67 37.9166666666667 65.375 36.75 64.2083333333333L27.5833333333333 55.0416666666667z" />
    <glyph glyph-name="action-cancel"
      unicode="&#xEA2C;"
      horiz-adv-x="100" d="M79.1666666666667 73.2916666666667L73.2916666666667 79.1666666666667L50 55.875L26.7083333333333 79.1666666666667L20.8333333333333 73.2916666666667L44.125 50L20.8333333333333 26.7083333333333L26.7083333333333 20.8333333333333L50 44.125L73.2916666666667 20.8333333333333L79.1666666666667 26.7083333333333L55.875 50z" />
    <glyph glyph-name="action-create"
      unicode="&#xEA2D;"
      horiz-adv-x="100" d="M13.1041666666667 28.125V12.5H28.7291666666667L74.8124999999999 58.5833333333333L59.1875 74.2083333333333L13.1041666666667 28.125zM86.8958333333333 70.6666666666667C88.5208333333333 72.2916666666667 88.5208333333333 74.9166666666667 86.8958333333333 76.5416666666667L77.1458333333333 86.2916666666667C75.5208333333333 87.9166666666667 72.8958333333333 87.9166666666667 71.2708333333333 86.2916666666667L63.6458333333334 78.6666666666667L79.2708333333333 63.0416666666667L86.8958333333333 70.6666666666667z" />
    <glyph glyph-name="action-delete"
      unicode="&#xEA2E;"
      horiz-adv-x="100" d="M25 20.8333333333333C25 16.25 28.75 12.5 33.3333333333333 12.5H66.6666666666667C71.25 12.5 75 16.25 75 20.8333333333333V70.8333333333333H25V20.8333333333333zM79.1666666666667 83.3333333333333H64.5833333333333L60.4166666666667 87.5H39.5833333333333L35.4166666666667 83.3333333333333H20.8333333333333V75H79.1666666666667V83.3333333333333z" />
    <glyph glyph-name="action-download"
      unicode="&#xEA2F;"
      horiz-adv-x="100" d="M79.1666666666667 62.5H62.5V87.5H37.5V62.5H20.8333333333333L50 33.3333333333333L79.1666666666667 62.5zM20.8333333333333 25V16.6666666666667H79.1666666666667V25H20.8333333333333z" />
    <glyph glyph-name="action-link-external"
      unicode="&#xEA30;"
      horiz-adv-x="100" d="M59.1666666666667 87.5L69.5833333333333 77.0833333333333L29.1666666666667 37.5L37.5 29.1666666666667L77.0833333333333 69.5833333333333L87.5 59.1666666666667L87.5 87.5zM75 20.8333333333333L20.8333333333333 20.8333333333333L20.8333333333333 75L50 75L50 83.3333333333333L12.5 83.3333333333333L12.5 12.5L83.3333333333333 12.5L83.3333333333333 50L75 50z" />
    <glyph glyph-name="action-lock"
      unicode="&#xEA31;"
      horiz-adv-x="100" d="M75 66.6666666666667H70.8333333333333V75C70.8333333333333 86.5 61.5 95.8333333333333 50 95.8333333333333S29.1666666666667 86.5 29.1666666666667 75V66.6666666666667H25C20.4166666666667 66.6666666666667 16.6666666666667 62.9166666666667 16.6666666666667 58.3333333333333V16.6666666666667C16.6666666666667 12.0833333333333 20.4166666666667 8.3333333333333 25 8.3333333333333H75C79.5833333333333 8.3333333333333 83.3333333333333 12.0833333333333 83.3333333333333 16.6666666666667V58.3333333333333C83.3333333333333 62.9166666666667 79.5833333333333 66.6666666666667 75 66.6666666666667zM50 29.1666666666667C45.4166666666667 29.1666666666667 41.6666666666667 32.9166666666667 41.6666666666667 37.5S45.4166666666667 45.8333333333333 50 45.8333333333333S58.3333333333333 42.0833333333333 58.3333333333333 37.5S54.5833333333333 29.1666666666667 50 29.1666666666667zM62.9166666666667 66.6666666666667H37.0833333333333V75C37.0833333333333 82.125 42.875 87.9166666666667 50 87.9166666666667C57.125 87.9166666666667 62.9166666666667 82.125 62.9166666666667 75V66.6666666666667z" />
    <glyph glyph-name="action-pause"
      unicode="&#xEA32;"
      horiz-adv-x="100" d="M25 20.8333333333333H41.6666666666667V79.1666666666667H25V20.8333333333333zM58.3333333333333 79.1666666666667V20.8333333333333H75V79.1666666666667H58.3333333333333z" />
    <glyph glyph-name="action-play"
      unicode="&#xEA33;"
      horiz-adv-x="100" d="M27.0833333333333 79.1666666666667V20.8333333333333L72.9166666666667 50z" />
    <glyph glyph-name="action-print"
      unicode="&#xEA34;"
      horiz-adv-x="100" d="M79.1666666666667 66.6666666666667H20.8333333333333C13.9166666666667 66.6666666666667 8.3333333333333 61.0833333333333 8.3333333333333 54.1666666666667V29.1666666666667H25V12.5H75V29.1666666666667H91.6666666666667V54.1666666666667C91.6666666666667 61.0833333333333 86.0833333333333 66.6666666666667 79.1666666666667 66.6666666666667zM66.6666666666667 20.8333333333333H33.3333333333333V41.6666666666667H66.6666666666667V20.8333333333333zM79.1666666666667 50C76.875 50 75 51.875 75 54.1666666666667S76.875 58.3333333333333 79.1666666666667 58.3333333333333S83.3333333333333 56.4583333333333 83.3333333333333 54.1666666666667S81.4583333333333 50 79.1666666666667 50zM75 87.5H25V70.8333333333333H75V87.5z" />
    <glyph glyph-name="action-remove"
      unicode="&#xEA35;"
      horiz-adv-x="100" d="M79.1666666666667 45.8333333333333H20.8333333333333V54.1666666666667H79.1666666666667V45.8333333333333z" />
    <glyph glyph-name="action-reply"
      unicode="&#xEA36;"
      horiz-adv-x="100" d="M41.6666666666667 62.5V79.1666666666667L12.5 50L41.6666666666667 20.8333333333333V37.9166666666667C62.5 37.9166666666667 77.0833333333333 31.25 87.5 16.6666666666667C83.3333333333333 37.5 70.8333333333333 58.3333333333333 41.6666666666667 62.5z" />
    <glyph glyph-name="action-search"
      unicode="&#xEA37;"
      horiz-adv-x="100" d="M65.6458333333333 41.6666666666667H62.3541666666667L61.1875 42.7916666666667C65.2708333333333 47.5416666666667 67.7291666666667 53.7083333333333 67.7291666666667 60.4166666666667C67.7291666666667 75.375 55.6041666666667 87.5 40.6458333333333 87.5S13.5625 75.375 13.5625 60.4166666666667S25.6875 33.3333333333333 40.6458333333333 33.3333333333333C47.3541666666667 33.3333333333333 53.5208333333333 35.7916666666667 58.2708333333333 39.875L59.3958333333333 38.7083333333333V35.4166666666667L80.2291666666667 14.625L86.4375 20.8333333333333L65.6458333333333 41.6666666666667zM40.6458333333333 41.6666666666667C30.2708333333333 41.6666666666667 21.8958333333333 50.0416666666667 21.8958333333333 60.4166666666667S30.2708333333333 79.1666666666667 40.6458333333333 79.1666666666667S59.3958333333333 70.7916666666667 59.3958333333333 60.4166666666667S51.0208333333333 41.6666666666667 40.6458333333333 41.6666666666667z" />
    <glyph glyph-name="action-upload"
      unicode="&#xEA39;"
      horiz-adv-x="100" d="M37.5 33.3333333333333H62.5V58.3333333333333H79.1666666666667L50 87.5L20.8333333333333 58.3333333333333H37.5zM20.8333333333333 25H79.1666666666667V16.6666666666667H20.8333333333333z" />
    <glyph glyph-name="content-bar"
      unicode="&#xEA3A;"
      horiz-adv-x="100" d="M87.5 79.1666666666667V87.5H12.5V79.1666666666667L45.8333333333333 41.6666666666667V20.8333333333333H25V12.5H75V20.8333333333333H54.1666666666667V41.6666666666667L87.5 79.1666666666667zM30.9791666666667 70.8333333333333L23.5625 79.1666666666667H76.4375L69.0208333333333 70.8333333333333H30.9791666666667z" />
    <glyph glyph-name="content-basket"
      unicode="&#xEA3B;"
      horiz-adv-x="100" d="M71.7083333333333 62.5L53.4583333333333 89.8125C52.6666666666667 91.0208333333333 51.3333333333333 91.5833333333333 50 91.5833333333333C48.6666666666667 91.5833333333333 47.3333333333333 91 46.5416666666667 89.8125L28.2916666666667 62.5H8.3333333333333C6.0416666666667 62.5 4.1666666666667 60.625 4.1666666666667 58.3333333333333C4.1666666666667 57.9375 4.2291666666667 57.5625 4.3125 57.2083333333333L14.875 18.5833333333333C15.8541666666667 15.0833333333333 19.0833333333333 12.5 22.9166666666667 12.5H77.0833333333333C80.9166666666667 12.5 84.1458333333333 15.0833333333333 85.1041666666667 18.6041666666667L95.6666666666667 57.2291666666667C95.7708333333333 57.5625 95.8333333333333 57.9375 95.8333333333333 58.3333333333333C95.8333333333333 60.625 93.9583333333333 62.5 91.6666666666667 62.5H71.7083333333333zM37.5 62.5L50 80.8333333333333L62.5 62.5H37.5zM50 29.1666666666667C45.3958333333333 29.1666666666667 41.6666666666667 32.8958333333333 41.6666666666667 37.5S45.3958333333333 45.8333333333333 50 45.8333333333333S58.3333333333333 42.1041666666667 58.3333333333333 37.5S54.6041666666667 29.1666666666667 50 29.1666666666667z" />
    <glyph glyph-name="content-bbq"
      unicode="&#xEA3C;"
      horiz-adv-x="100" d="M16.875 58.3333333333333V48.5416666666667C16.875 38.125 25.625 29.375 36.0416666666666 29.375H37.2916666666666L25.2083333333333 13.125L31.875 8.125L45.8333333333333 26.875V8.3333333333333H54.1666666666666V27.0833333333333L68.125 8.3333333333333L74.7916666666666 13.3333333333333L62.7083333333333 29.5833333333333H63.9583333333333C74.5833333333333 29.5833333333333 83.125 38.125 83.125 48.75V58.3333333333333H16.875zM35.2083333333333 74.1666666666667C37.5 71.6666666666667 38.3333333333333 67.9166666666667 37.7083333333333 64.5833333333333V62.5H46.0416666666666V64.5833333333333C46.0416666666666 70.8333333333333 44.7916666666666 75.625 40.4166666666666 79.7916666666667L40.2083333333333 80C37.7083333333333 82.7083333333333 37.7083333333333 85.4166666666667 37.7083333333333 89.5833333333333L37.7083333333333 91.6666666666667H29.375V89.5833333333333C29.375 83.3333333333333 30.625 78.75 35 74.375L35.2083333333333 74.1666666666667zM53.9583333333333 74.1666666666667C56.25 71.6666666666667 57.0833333333333 67.9166666666667 56.4583333333333 64.5833333333333V62.5H64.7916666666666V64.5833333333333C64.7916666666666 70.8333333333333 63.5416666666666 75.625 59.1666666666666 79.7916666666667L58.9583333333333 80C56.4583333333333 82.7083333333333 56.4583333333333 85.4166666666667 56.4583333333333 89.5833333333333L56.4583333333333 91.6666666666667H48.125V89.5833333333333C48.125 83.3333333333333 49.375 78.75 53.75 74.375L53.9583333333333 74.1666666666667z" />
    <glyph glyph-name="content-bed"
      unicode="&#xEA3D;"
      horiz-adv-x="100" d="M79.1666666666667 70.8333333333333H45.8333333333333V41.6666666666667H12.5V79.1666666666667H4.1666666666667V16.6666666666667H12.5V29.1666666666667H87.5V16.6666666666667H95.8333333333333V54.1666666666667A16.666666666666668 16.666666666666668 0 0 1 79.1666666666667 70.8333333333333M29.1666666666667 45.8333333333333A12.500000000000004 12.500000000000004 0 0 1 41.6666666666667 58.3333333333333A12.500000000000004 12.500000000000004 0 0 1 29.1666666666667 70.8333333333333A12.500000000000004 12.500000000000004 0 0 1 16.6666666666667 58.3333333333333A12.500000000000004 12.500000000000004 0 0 1 29.1666666666667 45.8333333333333z" />
    <glyph glyph-name="content-bike"
      unicode="&#xEA3E;"
      horiz-adv-x="100" d="M64.5833333333333 77.0833333333333C69.1666666666667 77.0833333333333 72.9166666666667 80.8333333333333 72.9166666666667 85.4166666666667S69.1666666666667 93.75 64.5833333333333 93.75S56.25 90 56.25 85.4166666666667S60 77.0833333333333 64.5833333333333 77.0833333333333zM20.8333333333333 50C9.375 50 0 40.625 0 29.1666666666667S9.375 8.3333333333333 20.8333333333333 8.3333333333333S41.6666666666667 17.7083333333333 41.6666666666667 29.1666666666667S32.2916666666667 50 20.8333333333333 50zM20.8333333333333 14.5833333333333C12.7083333333333 14.5833333333333 6.25 21.0416666666667 6.25 29.1666666666667S12.7083333333333 43.75 20.8333333333333 43.75S35.4166666666667 37.2916666666667 35.4166666666667 29.1666666666667S28.9583333333333 14.5833333333333 20.8333333333333 14.5833333333333zM78.9583333333333 62.7083333333333C72.7083333333333 62.7083333333333 67.5 65 63.75 68.75L55.625 76.6666666666667C54.375 78.125 52.2916666666667 79.1666666666667 50 79.1666666666667S45.625 78.3333333333333 44.1666666666667 76.6666666666667L32.7083333333333 65.2083333333333C31.25 63.75 30.2083333333333 61.6666666666667 30.2083333333333 59.375S31.25 55 32.7083333333333 53.3333333333333L45.8333333333333 41.6666666666667V20.8333333333333H54.1666666666667V46.875L45 56.0416666666667L54.7916666666667 66.0416666666667L57.9166666666667 62.9166666666667C63.125 57.5 70.4166666666667 54.375 78.9583333333333 54.375V62.7083333333333zM79.1666666666667 50C67.7083333333333 50 58.3333333333333 40.625 58.3333333333333 29.1666666666667S67.7083333333333 8.3333333333333 79.1666666666667 8.3333333333333S100 17.7083333333333 100 29.1666666666667S90.625 50 79.1666666666667 50zM79.1666666666667 14.5833333333333C71.0416666666667 14.5833333333333 64.5833333333333 21.0416666666667 64.5833333333333 29.1666666666667S71.0416666666667 43.75 79.1666666666667 43.75S93.75 37.2916666666667 93.75 29.1666666666667S87.2916666666667 14.5833333333333 79.1666666666667 14.5833333333333z" />
    <glyph glyph-name="content-bus"
      unicode="&#xEA3F;"
      horiz-adv-x="100" d="M16.6666666666667 33.3333333333333C16.6666666666667 29.6458333333333 18.2916666666667 26.375 20.8333333333333 24.0833333333333V16.6666666666667C20.8333333333333 14.375 22.7083333333333 12.5 25 12.5H29.1666666666667C31.4791666666667 12.5 33.3333333333333 14.375 33.3333333333333 16.6666666666667V20.8333333333333H66.6666666666667V16.6666666666667C66.6666666666667 14.375 68.5208333333333 12.5 70.8333333333333 12.5H75C77.2916666666667 12.5 79.1666666666667 14.375 79.1666666666667 16.6666666666667V24.0833333333333C81.7083333333333 26.375 83.3333333333333 29.6458333333333 83.3333333333333 33.3333333333333V75C83.3333333333333 89.5833333333333 68.4166666666667 91.6666666666667 50 91.6666666666667S16.6666666666667 89.5833333333333 16.6666666666667 75V33.3333333333333zM31.25 29.1666666666667C27.7916666666667 29.1666666666667 25 31.9583333333333 25 35.4166666666667S27.7916666666667 41.6666666666667 31.25 41.6666666666667S37.5 38.875 37.5 35.4166666666667S34.7083333333333 29.1666666666667 31.25 29.1666666666667zM68.75 29.1666666666667C65.2916666666667 29.1666666666667 62.5 31.9583333333333 62.5 35.4166666666667S65.2916666666667 41.6666666666667 68.75 41.6666666666667S75 38.875 75 35.4166666666667S72.2083333333333 29.1666666666667 68.75 29.1666666666667zM75 54.1666666666667H25V75H75V54.1666666666667z" />
    <glyph glyph-name="content-cafe"
      unicode="&#xEA40;"
      horiz-adv-x="100" d="M8.3333333333333 12.5H83.3333333333333V20.8333333333333H8.3333333333333M83.3333333333333 66.6666666666667H75V79.1666666666667H83.3333333333333M83.3333333333333 87.5H16.6666666666667V45.8333333333333A16.666666666666668 16.666666666666668 0 0 1 33.3333333333333 29.1666666666667H58.3333333333333A16.666666666666668 16.666666666666668 0 0 1 75 45.8333333333333V58.3333333333333H83.3333333333333A8.333333333333334 8.333333333333334 0 0 1 91.6666666666667 66.6666666666667V79.1666666666667C91.6666666666667 83.7916666666667 87.9166666666667 87.5 83.3333333333333 87.5z" />
    <glyph glyph-name="content-calendar"
      unicode="&#xEA41;"
      horiz-adv-x="100" d="M79.1666666666667 20.8333333333333H20.8333333333333V66.6666666666667H79.1666666666667M66.6666666666667 95.8333333333333V87.5H33.3333333333333V95.8333333333333H25V87.5H20.8333333333333C16.2083333333333 87.5 12.5 83.7916666666667 12.5 79.1666666666667V20.8333333333333A8.333333333333334 8.333333333333334 0 0 1 20.8333333333333 12.5H79.1666666666667A8.333333333333334 8.333333333333334 0 0 1 87.5 20.8333333333333V79.1666666666667C87.5 83.7916666666667 83.75 87.5 79.1666666666667 87.5H75V95.8333333333333M70.8333333333333 50H50V29.1666666666667H70.8333333333333V50z" />
    <glyph glyph-name="content-couch"
      unicode="&#xEA42;"
      horiz-adv-x="100" d="M25 50.2083333333333V41.6666666666667H75V50.2083333333333C75 55.625 78.5416666666667 60.2083333333333 83.3333333333333 61.875V70.8333333333333C83.3333333333333 75.4166666666667 79.5833333333333 79.1666666666667 75 79.1666666666667H25C20.4166666666667 79.1666666666667 16.6666666666667 75.4166666666667 16.6666666666667 70.8333333333333V61.875C21.4583333333333 60.2083333333333 25 55.625 25 50.2083333333333zM87.5 58.3333333333333C82.9166666666667 58.3333333333333 79.1666666666667 54.5833333333333 79.1666666666667 50V37.5H20.8333333333333V50C20.8333333333333 54.5833333333333 17.0833333333333 58.3333333333333 12.5 58.3333333333333S4.1666666666667 54.5833333333333 4.1666666666667 50V29.1666666666667C4.1666666666667 24.5833333333333 7.9166666666667 20.8333333333333 12.5 20.8333333333333H87.5C92.0833333333333 20.8333333333333 95.8333333333333 24.5833333333333 95.8333333333333 29.1666666666667V50C95.8333333333333 54.5833333333333 92.0833333333333 58.3333333333333 87.5 58.3333333333333z" />
    <glyph glyph-name="content-email-open"
      unicode="&#xEA43;"
      horiz-adv-x="100" d="M91.625 66.6666666666667C91.625 69.6666666666667 90.0833333333333 72.2916666666667 87.7083333333333 73.75L50 95.8333333333333L12.2916666666667 73.75C9.9166666666667 72.2916666666667 8.3333333333333 69.6666666666667 8.3333333333333 66.6666666666667V25C8.3333333333333 20.4166666666667 12.0833333333333 16.6666666666667 16.6666666666667 16.6666666666667H83.3333333333333C87.9166666666667 16.6666666666667 91.6666666666667 20.4166666666667 91.6666666666667 25L91.625 66.6666666666667zM50 45.8333333333333L15.5833333333333 67.3333333333333L50 87.5L84.4166666666667 67.3333333333333L50 45.8333333333333z" />
    <glyph glyph-name="content-email"
      unicode="&#xEA44;"
      horiz-adv-x="100" d="M83.3333333333333 83.3333333333333H16.6666666666667C12.0833333333333 83.3333333333333 8.375 79.5833333333333 8.375 75L8.3333333333333 25C8.3333333333333 20.4166666666667 12.0833333333333 16.6666666666667 16.6666666666667 16.6666666666667H83.3333333333333C87.9166666666667 16.6666666666667 91.6666666666667 20.4166666666667 91.6666666666667 25V75C91.6666666666667 79.5833333333333 87.9166666666667 83.3333333333333 83.3333333333333 83.3333333333333zM83.3333333333333 66.6666666666667L50 45.8333333333333L16.6666666666667 66.6666666666667V75L50 54.1666666666667L83.3333333333333 75V66.6666666666667z" />
    <glyph glyph-name="content-fitness"
      unicode="&#xEA45;"
      horiz-adv-x="100" d="M85.7083333333333 38.1041666666667L91.6666666666667 44.0416666666667L85.7083333333333 50L70.8333333333333 35.125L35.125 70.8333333333333L50 85.7083333333333L44.0416666666667 91.6666666666667L38.1041666666667 85.7083333333333L32.1458333333333 91.6666666666667L23.2083333333333 82.7291666666667L17.2708333333333 88.6875L11.3125 82.7291666666667L17.2708333333333 76.7916666666667L8.3333333333333 67.8541666666667L14.2916666666667 61.8958333333333L8.3333333333333 55.9583333333333L14.2916666666667 50L29.1666666666667 64.875L64.875 29.1666666666667L50 14.2916666666667L55.9583333333333 8.3333333333333L61.8958333333333 14.2916666666667L67.8541666666667 8.3333333333333L76.7916666666667 17.2708333333333L82.7291666666667 11.3125L88.6875 17.2708333333333L82.7291666666667 23.2083333333333L91.6666666666667 32.1458333333333z" />
    <glyph glyph-name="content-home"
      unicode="&#xEA46;"
      horiz-adv-x="100" d="M41.6666666666667 16.6666666666667V41.6666666666667H58.3333333333333V16.6666666666667H79.1666666666667V50H91.6666666666667L50 87.5L8.3333333333333 50H20.8333333333333V16.6666666666667z" />
    <glyph glyph-name="content-hospital"
      unicode="&#xEA47;"
      horiz-adv-x="100" d="M75 41.6666666666667H58.3333333333333V25H41.6666666666667V41.6666666666667H25V58.3333333333333H41.6666666666667V75H58.3333333333333V58.3333333333333H75M79.1666666666667 87.5H20.8333333333333C16.2083333333333 87.5 12.5 83.7916666666667 12.5 79.1666666666667V20.8333333333333A8.333333333333334 8.333333333333334 0 0 1 20.8333333333333 12.5H79.1666666666667A8.333333333333334 8.333333333333334 0 0 1 87.5 20.8333333333333V79.1666666666667C87.5 83.7916666666667 83.75 87.5 79.1666666666667 87.5z" />
    <glyph glyph-name="content-key"
      unicode="&#xEA48;"
      horiz-adv-x="100" d="M52.7083333333333 58.3333333333333C49.2708333333333 68.0416666666667 40.0416666666667 75 29.1666666666667 75C15.3541666666667 75 4.1666666666667 63.8125 4.1666666666667 50S15.3541666666667 25 29.1666666666667 25C40.0416666666667 25 49.2708333333333 31.9583333333333 52.7083333333333 41.6666666666667H70.8333333333333V25H87.5V41.6666666666667H95.8333333333333V58.3333333333333H52.7083333333333zM29.1666666666667 41.6666666666667C24.5625 41.6666666666667 20.8333333333333 45.3958333333333 20.8333333333333 50S24.5625 58.3333333333333 29.1666666666667 58.3333333333333S37.5 54.6041666666667 37.5 50S33.7708333333333 41.6666666666667 29.1666666666667 41.6666666666667z" />
    <glyph glyph-name="content-location"
      unicode="&#xEA49;"
      horiz-adv-x="100" d="M50 91.6666666666667C33.875 91.6666666666667 20.8333333333333 78.625 20.8333333333333 62.5C20.8333333333333 40.625 50 8.3333333333333 50 8.3333333333333S79.1666666666667 40.625 79.1666666666667 62.5C79.1666666666667 78.625 66.125 91.6666666666667 50 91.6666666666667zM50 52.0833333333333C44.25 52.0833333333333 39.5833333333333 56.75 39.5833333333333 62.5S44.25 72.9166666666667 50 72.9166666666667S60.4166666666667 68.25 60.4166666666667 62.5S55.75 52.0833333333333 50 52.0833333333333z" />
    <glyph glyph-name="content-map"
      unicode="&#xEA4A;"
      horiz-adv-x="100" d="M20.8333333333333 83.3333333333333A8.333333333333334 8.333333333333334 0 0 1 12.5 75V32.125L46.5833333333333 66.2083333333333C46.0833333333333 68.375 45.8333333333333 70.5416666666667 45.8333333333333 72.7916666666667C45.8333333333333 76.5833333333333 46.6666666666667 80.1666666666667 48.2916666666667 83.3333333333333H20.8333333333333M75 12.5A8.333333333333334 8.333333333333334 0 0 1 83.3333333333333 20.8333333333333V50.5833333333333C80.1666666666667 45.8333333333333 76.2916666666667 40.7916666666667 72.0416666666667 35.4166666666667L68.75 31.25L65.5 35.4166666666667C59.9583333333333 42.2916666666667 55.0833333333333 48.6666666666667 51.625 54.5416666666667C50.2083333333333 56.9583333333333 49 59.3333333333333 48.0416666666667 61.75L31.0833333333333 44.7916666666667L63.375 12.5H75M12.5 20.8333333333333A8.333333333333334 8.333333333333334 0 0 1 20.8333333333333 12.5H57.4583333333333L28.125 41.8333333333333L12.5 26.2083333333333V20.8333333333333M68.75 37.5C79.625 51.5416666666667 87.5 62.0833333333333 87.5 72.625C87.5 83.125 79.1666666666667 91.6666666666667 68.75 91.6666666666667C58.3333333333333 91.6666666666667 50 83.125 50 72.625C50 62.0833333333333 57.7916666666667 51.5416666666667 68.75 37.5M77.0833333333333 72.9166666666667A8.333333333333334 8.333333333333334 0 0 0 68.75 64.5833333333333A8.333333333333334 8.333333333333334 0 0 0 60.4166666666667 72.9166666666667A8.333333333333334 8.333333333333334 0 0 0 68.75 81.25A8.333333333333334 8.333333333333334 0 0 0 77.0833333333333 72.9166666666667z" />
    <glyph glyph-name="content-music"
      unicode="&#xEA4B;"
      horiz-adv-x="100" d="M50 87.5V43.5208333333333C47.5416666666667 44.9583333333333 44.7083333333333 45.8333333333333 41.6666666666667 45.8333333333333C32.4583333333333 45.8333333333333 25 38.375 25 29.1666666666667S32.4583333333333 12.5 41.6666666666667 12.5S58.3333333333333 19.9583333333333 58.3333333333333 29.1666666666667V70.8333333333333H75V87.5H50z" />
    <glyph glyph-name="content-news"
      unicode="&#xEA4C;"
      horiz-adv-x="100" d="M83.3333333333333 54.1666666666667H16.6666666666667V66.6666666666667H83.3333333333333M83.3333333333333 37.5H54.1666666666667V45.8333333333333H83.3333333333333M83.3333333333333 20.8333333333333H54.1666666666667V29.1666666666667H83.3333333333333M45.8333333333333 20.8333333333333H16.6666666666667V45.8333333333333H45.8333333333333M84.7083333333333 80.5416666666667L77.7916666666667 87.5L70.8333333333333 80.5416666666667L63.875 87.5L56.9583333333333 80.5416666666667L50 87.5L43.0416666666667 80.5416666666667L36.125 87.5L29.1666666666667 80.5416666666667L22.2083333333333 87.5L15.2916666666667 80.5416666666667L8.3333333333333 87.5V20.8333333333333A8.333333333333334 8.333333333333334 0 0 1 16.6666666666667 12.5H83.3333333333333A8.333333333333334 8.333333333333334 0 0 1 91.6666666666667 20.8333333333333V87.5L84.7083333333333 80.5416666666667z" />
    <glyph glyph-name="content-parking"
      unicode="&#xEA4D;"
      horiz-adv-x="100" d="M52.0833333333334 87.5H22.9166666666667V12.5H39.5833333333334V37.5H52.0833333333334C65.8958333333333 37.5 77.0833333333333 48.6875 77.0833333333333 62.5S65.8958333333333 87.5 52.0833333333334 87.5zM52.9166666666667 54.1666666666667H39.5833333333334V70.8333333333333H52.9166666666667C57.5208333333334 70.8333333333333 61.25 67.1041666666667 61.25 62.5S57.5208333333334 54.1666666666667 52.9166666666667 54.1666666666667z" />
    <glyph glyph-name="content-restaurant"
      unicode="&#xEA4E;"
      horiz-adv-x="100" d="M45.8333333333333 62.5H37.5V91.6666666666667H29.1666666666667V62.5H20.8333333333333V91.6666666666667H12.5V62.5C12.5 53.6458333333333 19.4166666666667 46.4791666666667 28.125 45.9375V8.3333333333333H38.5416666666667V45.9375C47.25 46.4791666666667 54.1666666666667 53.6458333333333 54.1666666666667 62.5V91.6666666666667H45.8333333333333V62.5zM66.6666666666667 75V41.6666666666667H77.0833333333333V8.3333333333333H87.5V91.6666666666667C76 91.6666666666667 66.6666666666667 82.3333333333333 66.6666666666667 75z" />
    <glyph glyph-name="content-rss"
      unicode="&#xEA4F;"
      horiz-adv-x="100" d="M26.6666666666667 34.8333333333333A9.083333333333336 9.083333333333336 0 0 0 35.75 25.75C35.75 20.8333333333333 31.6666666666667 16.6666666666667 26.6666666666667 16.6666666666667C21.75 16.6666666666667 17.5833333333334 20.8333333333333 17.5833333333334 25.75A9.083333333333336 9.083333333333336 0 0 0 26.6666666666667 34.8333333333333M17.5833333333334 81.5A64.83333333333334 64.83333333333334 0 0 0 82.4166666666667 16.6666666666667H70.6249999999999A53.041666666666686 53.041666666666686 0 0 1 17.5833333333334 69.7083333333333V81.5M17.5833333333334 57.9166666666667A41.25000000000001 41.25000000000001 0 0 0 58.8333333333334 16.6666666666667H47.0416666666667A29.45833333333334 29.45833333333334 0 0 1 17.5833333333334 46.125V57.9166666666667z" />
    <glyph glyph-name="content-shower"
      unicode="&#xEA50;"
      horiz-adv-x="100" d="M58.3333333333333 83.3333333333333V91.6666666666667H41.6666666666667V83.3333333333333C41.6666666666667 83.3333333333333 12.5 78.3333333333333 12.5 50H87.5C87.5 78.3333333333333 58.3333333333333 83.3333333333333 58.3333333333333 83.3333333333333zM12.5 43.75H20.8333333333333V29.1666666666667H12.5V43.75zM62.5 43.75H70.8333333333333V29.1666666666667H62.5V43.75zM79.1666666666667 43.75H87.5V29.1666666666667H79.1666666666667V43.75zM29.1666666666667 43.75H37.5V29.1666666666667H29.1666666666667V43.75zM45.8333333333333 43.75H54.1666666666667V29.1666666666667H45.8333333333333V43.75zM12.5 22.9166666666667H20.8333333333333V8.3333333333333H12.5V22.9166666666667zM62.5 22.9166666666667H70.8333333333333V8.3333333333333H62.5V22.9166666666667zM79.1666666666667 22.9166666666667H87.5V8.3333333333333H79.1666666666667V22.9166666666667zM29.1666666666667 22.9166666666667H37.5V8.3333333333333H29.1666666666667V22.9166666666667zM45.8333333333333 22.9166666666667H54.1666666666667V8.3333333333333H45.8333333333333V22.9166666666667z" />
    <glyph glyph-name="content-table-tennis"
      unicode="&#xEA51;"
      horiz-adv-x="100" d="M57.3958333333334 87.9166666666667C57.3958333333334 87.9166666666667 54.2708333333334 88.5416666666667 50.5208333333334 88.5416666666667C46.5625000000001 88.5416666666667 43.8541666666667 87.9166666666667 43.8541666666667 87.9166666666667S23.4375000000001 84.5833333333333 23.4375000000001 66.0416666666667V51.0416666666667C23.4375000000001 46.4583333333333 24.6875000000001 42.7083333333333 26.7708333333334 40H74.6875000000001C76.5625000000001 42.7083333333333 78.0208333333333 46.4583333333333 78.0208333333333 51.0416666666667V66.0416666666667C77.6041666666667 84.5833333333333 57.3958333333334 87.9166666666667 57.3958333333334 87.9166666666667zM43.8541666666667 30.8333333333333V10H57.3958333333334V30.625C57.3958333333334 30.625 66.7708333333333 31.4583333333333 72.8125000000001 37.9166666666667H28.4375000000001C34.4791666666667 31.6666666666667 43.8541666666667 30.8333333333333 43.8541666666667 30.8333333333333zM21.9791666666667 14.7916666666667C21.9791666666667 12.1453022403941 24.1244689070608 10 26.7708333333334 10C29.417197759606 10 31.5625000000001 12.1453022403941 31.5625000000001 14.7916666666667C31.5625000000001 17.4380310929392 29.417197759606 19.5833333333333 26.7708333333334 19.5833333333333C24.1244689070608 19.5833333333333 21.9791666666667 17.4380310929392 21.9791666666667 14.7916666666667z" />
    <glyph glyph-name="content-tag"
      unicode="&#xEA52;"
      horiz-adv-x="100" d="M89.2083333333333 51.75L51.7083333333333 89.25C50.2083333333333 90.75 48.125 91.6666666666667 45.8333333333333 91.6666666666667H16.6666666666667C12.0833333333333 91.6666666666667 8.3333333333333 87.9166666666667 8.3333333333333 83.3333333333333V54.1666666666667C8.3333333333333 51.875 9.25 49.7916666666667 10.7916666666667 48.25L48.2916666666667 10.75C49.7916666666667 9.25 51.875 8.3333333333333 54.1666666666667 8.3333333333333C56.4583333333333 8.3333333333333 58.5416666666667 9.25 60.0416666666667 10.7916666666667L89.2083333333333 39.9583333333333C90.75 41.4583333333333 91.6666666666667 43.5416666666667 91.6666666666667 45.8333333333333C91.6666666666667 48.125 90.7083333333333 50.25 89.2083333333333 51.75zM22.9166666666667 70.8333333333333C19.4583333333333 70.8333333333333 16.6666666666667 73.625 16.6666666666667 77.0833333333333S19.4583333333333 83.3333333333333 22.9166666666667 83.3333333333333S29.1666666666667 80.5416666666667 29.1666666666667 77.0833333333333S26.375 70.8333333333333 22.9166666666667 70.8333333333333z" />
    <glyph glyph-name="content-train"
      unicode="&#xEA53;"
      horiz-adv-x="100" d="M50 91.6666666666667C33.3333333333333 91.6666666666667 16.6666666666667 89.5833333333333 16.6666666666667 75V35.4166666666667C16.6666666666667 27.375 23.2083333333333 20.8333333333333 31.25 20.8333333333333L25 14.5833333333333V12.5H34.2916666666667L42.625 20.8333333333333H58.3333333333333L66.6666666666667 12.5H75V14.5833333333333L68.75 20.8333333333333C76.7916666666667 20.8333333333333 83.3333333333333 27.375 83.3333333333333 35.4166666666667V75C83.3333333333333 89.5833333333333 68.4166666666667 91.6666666666667 50 91.6666666666667zM31.25 29.1666666666667C27.7916666666667 29.1666666666667 25 31.9583333333333 25 35.4166666666667S27.7916666666667 41.6666666666667 31.25 41.6666666666667S37.5 38.875 37.5 35.4166666666667S34.7083333333333 29.1666666666667 31.25 29.1666666666667zM45.8333333333333 58.3333333333333H25V75H45.8333333333333V58.3333333333333zM54.1666666666667 58.3333333333333V75H75V58.3333333333333H54.1666666666667zM68.75 29.1666666666667C65.2916666666667 29.1666666666667 62.5 31.9583333333333 62.5 35.4166666666667S65.2916666666667 41.6666666666667 68.75 41.6666666666667S75 38.875 75 35.4166666666667S72.2083333333333 29.1666666666667 68.75 29.1666666666667z" />
    <glyph glyph-name="content-tv"
      unicode="&#xEA54;"
      horiz-adv-x="100" d="M87.5 75H55.8958333333333L69.625 88.7291666666667L66.6666666666667 91.6666666666667L50 75L33.3333333333333 91.6666666666667L30.3958333333333 88.7291666666667L44.1041666666667 75H12.5C7.8958333333333 75 4.1666666666667 71.2708333333333 4.1666666666667 66.6666666666667V16.6666666666667C4.1666666666667 12.0625 7.8958333333333 8.3333333333333 12.5 8.3333333333333H87.5C92.1041666666667 8.3333333333333 95.8333333333333 12.0625 95.8333333333333 16.6666666666667V66.6666666666667C95.8333333333333 71.2708333333333 92.1041666666667 75 87.5 75zM87.5 16.6666666666667H12.5V66.6666666666667H87.5V16.6666666666667zM37.5 58.3333333333333V25L66.6666666666667 41.6666666666667z" />
    <glyph glyph-name="content-user"
      unicode="&#xEA55;"
      horiz-adv-x="100" d="M50 50C59.2083333333333 50 66.6666666666667 57.4583333333333 66.6666666666667 66.6666666666667S59.2083333333333 83.3333333333333 50 83.3333333333333S33.3333333333333 75.875 33.3333333333333 66.6666666666667S40.7916666666667 50 50 50zM50 41.6666666666667C38.875 41.6666666666667 16.6666666666667 36.0833333333333 16.6666666666667 25V16.6666666666667H83.3333333333333V25C83.3333333333333 36.0833333333333 61.125 41.6666666666667 50 41.6666666666667z" />
    <glyph glyph-name="content-videogame"
      unicode="&#xEA56;"
      horiz-adv-x="100" d="M87.5 75H12.5C7.8958333333333 75 4.1666666666667 71.2708333333333 4.1666666666667 66.6666666666667V33.3333333333333C4.1666666666667 28.7291666666667 7.8958333333333 25 12.5 25H87.5C92.1041666666667 25 95.8333333333333 28.7291666666667 95.8333333333333 33.3333333333333V66.6666666666667C95.8333333333333 71.2708333333333 92.1041666666667 75 87.5 75zM45.8333333333333 45.8333333333333H33.3333333333333V33.3333333333333H25V45.8333333333333H12.5V54.1666666666667H25V66.6666666666667H33.3333333333333V54.1666666666667H45.8333333333333V45.8333333333333zM64.5833333333333 37.5C61.125 37.5 58.3333333333333 40.2916666666667 58.3333333333333 43.75S61.125 50 64.5833333333333 50S70.8333333333333 47.2083333333333 70.8333333333333 43.75S68.0416666666667 37.5 64.5833333333333 37.5zM81.25 50C77.7916666666667 50 75 52.7916666666667 75 56.25S77.7916666666667 62.5 81.25 62.5S87.5 59.7083333333333 87.5 56.25S84.7083333333333 50 81.25 50z" />
    <glyph glyph-name="content-wc"
      unicode="&#xEA57;"
      horiz-adv-x="100" d="M20.8333333333334 8.3333333333333V39.5833333333333H14.5833333333334V62.5C14.5833333333334 67.0833333333333 18.3333333333334 70.8333333333333 22.9166666666667 70.8333333333333H35.4166666666667C40 70.8333333333333 43.75 67.0833333333333 43.75 62.5V39.5833333333333H37.5V8.3333333333333H20.8333333333334zM72.9166666666667 8.3333333333333V33.3333333333333H85.4166666666667L74.8124999999999 65.125C73.6874999999999 68.5416666666667 70.4999999999999 70.8333333333333 66.9166666666667 70.8333333333333H66.4374999999999C62.8541666666667 70.8333333333333 59.6666666666667 68.5416666666667 58.5416666666667 65.125L47.9166666666667 33.3333333333333H60.4166666666667V8.3333333333333H72.9166666666667zM29.1666666666667 75C33.7708333333334 75 37.5 78.7291666666667 37.5 83.3333333333333S33.7708333333334 91.6666666666667 29.1666666666667 91.6666666666667S20.8333333333334 87.9375 20.8333333333334 83.3333333333333S24.5625 75 29.1666666666667 75zM66.6666666666667 75C71.2708333333333 75 74.9999999999999 78.7291666666667 74.9999999999999 83.3333333333333S71.2708333333333 91.6666666666667 66.6666666666667 91.6666666666667S58.3333333333334 87.9375 58.3333333333334 83.3333333333333S62.0625 75 66.6666666666667 75z" />
    <glyph glyph-name="content-wifi"
      unicode="&#xEA58;"
      horiz-adv-x="100" d="M4.1666666666667 62.5L12.5 54.1666666666667C33.2083333333333 74.875 66.7916666666667 74.875 87.5 54.1666666666667L95.8333333333333 62.5C70.5208333333333 87.8125 29.4791666666667 87.8125 4.1666666666667 62.5zM37.5 29.1666666666667L50 16.6666666666667L62.5 29.1666666666667C55.6041666666667 36.0625 44.3958333333333 36.0625 37.5 29.1666666666667zM20.8333333333333 45.8333333333333L29.1666666666667 37.5C40.6666666666667 49 59.3333333333333 49 70.8333333333333 37.5L79.1666666666667 45.8333333333333C63.0625 61.9375 36.9375 61.9375 20.8333333333333 45.8333333333333z" />
    <glyph glyph-name="device-desktop"
      unicode="&#xEA59;"
      horiz-adv-x="100" d="M87.5 91.6666666666667H12.5C7.9166666666667 91.6666666666667 4.1666666666667 87.9166666666667 4.1666666666667 83.3333333333333V33.3333333333333C4.1666666666667 28.75 7.9166666666667 25 12.5 25H41.6666666666667L33.3333333333333 12.5V8.3333333333333H66.6666666666667V12.5L58.3333333333333 25H87.5C92.0833333333333 25 95.8333333333333 28.75 95.8333333333333 33.3333333333333V83.3333333333333C95.8333333333333 87.9166666666667 92.0833333333333 91.6666666666667 87.5 91.6666666666667zM87.5 41.6666666666667H12.5V83.3333333333333H87.5V41.6666666666667z" />
    <glyph glyph-name="device-laptop"
      unicode="&#xEA5A;"
      horiz-adv-x="100" d="M83.3333333333333 25C87.9166666666667 25 91.625 28.75 91.625 33.3333333333333L91.6666666666667 79.1666666666667C91.6666666666667 83.75 87.9166666666667 87.5 83.3333333333333 87.5H16.6666666666667C12.0833333333333 87.5 8.3333333333333 83.75 8.3333333333333 79.1666666666667V33.3333333333333C8.3333333333333 28.75 12.0833333333333 25 16.6666666666667 25H0C0 20.4166666666667 3.75 16.6666666666667 8.3333333333333 16.6666666666667H91.6666666666667C96.25 16.6666666666667 100 20.4166666666667 100 25H83.3333333333333zM16.6666666666667 79.1666666666667H83.3333333333333V33.3333333333333H16.6666666666667V79.1666666666667zM50 20.8333333333333C47.7083333333333 20.8333333333333 45.8333333333333 22.7083333333333 45.8333333333333 25S47.7083333333333 29.1666666666667 50 29.1666666666667S54.1666666666667 27.2916666666667 54.1666666666667 25S52.2916666666667 20.8333333333333 50 20.8333333333333z" />
    <glyph glyph-name="device-phone"
      unicode="&#xEA5B;"
      horiz-adv-x="100" d="M66.6666666666667 95.8333333333333H33.3333333333334C27.5833333333334 95.8333333333333 22.9166666666667 91.1666666666667 22.9166666666667 85.4166666666667V14.5833333333333C22.9166666666667 8.8333333333333 27.5833333333334 4.1666666666667 33.3333333333334 4.1666666666667H66.6666666666667C72.4166666666667 4.1666666666667 77.0833333333333 8.8333333333333 77.0833333333333 14.5833333333333V85.4166666666667C77.0833333333333 91.1666666666667 72.4166666666667 95.8333333333333 66.6666666666667 95.8333333333333zM50.0000000000001 8.3333333333333C46.5416666666667 8.3333333333333 43.7500000000001 11.125 43.7500000000001 14.5833333333333S46.5416666666667 20.8333333333333 50.0000000000001 20.8333333333333S56.2500000000001 18.0416666666667 56.2500000000001 14.5833333333333S53.4583333333334 8.3333333333333 50.0000000000001 8.3333333333333zM68.7500000000001 25H31.2500000000001V83.3333333333333H68.7500000000001V25z" />
    <glyph glyph-name="form-check-checked"
      unicode="&#xEA5C;"
      horiz-adv-x="100" d="M79.1666666666667 87.5H20.8333333333333C16.2083333333333 87.5 12.5 83.75 12.5 79.1666666666667V20.8333333333333C12.5 16.25 16.2083333333333 12.5 20.8333333333333 12.5H79.1666666666667C83.7916666666667 12.5 87.5 16.25 87.5 20.8333333333333V79.1666666666667C87.5 83.75 83.7916666666667 87.5 79.1666666666667 87.5zM41.6666666666667 29.1666666666667L20.8333333333333 50L26.7083333333333 55.875L41.6666666666667 40.9583333333333L73.2916666666667 72.5833333333333L79.1666666666667 66.6666666666667L41.6666666666667 29.1666666666667z" />
    <glyph glyph-name="form-check-unchecked"
      unicode="&#xEA5D;"
      horiz-adv-x="100" d="M79.1666666666667 79.1666666666667V20.8333333333333H20.8333333333333V79.1666666666667H79.1666666666667M79.1666666666667 87.5H20.8333333333333C16.25 87.5 12.5 83.75 12.5 79.1666666666667V20.8333333333333C12.5 16.25 16.25 12.5 20.8333333333333 12.5H79.1666666666667C83.75 12.5 87.5 16.25 87.5 20.8333333333333V79.1666666666667C87.5 83.75 83.75 87.5 79.1666666666667 87.5z" />
    <glyph glyph-name="form-radio-checked"
      unicode="&#xEA5E;"
      horiz-adv-x="100" d="M50 70.8333333333333C38.5 70.8333333333333 29.1666666666667 61.5 29.1666666666667 50S38.5 29.1666666666667 50 29.1666666666667S70.8333333333333 38.5 70.8333333333333 50S61.5 70.8333333333333 50 70.8333333333333zM50 91.6666666666667C27 91.6666666666667 8.3333333333333 73 8.3333333333333 50S27 8.3333333333333 50 8.3333333333333S91.6666666666667 27 91.6666666666667 50S73 91.6666666666667 50 91.6666666666667zM50 16.6666666666667C31.5833333333333 16.6666666666667 16.6666666666667 31.5833333333333 16.6666666666667 50S31.5833333333333 83.3333333333333 50 83.3333333333333S83.3333333333333 68.4166666666667 83.3333333333333 50S68.4166666666667 16.6666666666667 50 16.6666666666667z" />
    <glyph glyph-name="form-radio-unchecked"
      unicode="&#xEA5F;"
      horiz-adv-x="100" d="M50 91.6666666666667C27 91.6666666666667 8.3333333333333 73 8.3333333333333 50S27 8.3333333333333 50 8.3333333333333S91.6666666666667 27 91.6666666666667 50S73 91.6666666666667 50 91.6666666666667zM50 16.6666666666667C31.5833333333333 16.6666666666667 16.6666666666667 31.5833333333333 16.6666666666667 50S31.5833333333333 83.3333333333333 50 83.3333333333333S83.3333333333333 68.4166666666667 83.3333333333333 50S68.4166666666667 16.6666666666667 50 16.6666666666667z" />
    <glyph glyph-name="nav-arrow-dropdown-down"
      unicode="&#xEA60;"
      horiz-adv-x="100" d="M29.1666666666667 58.3333333333333L50 37.5L70.8333333333333 58.3333333333333z" />
    <glyph glyph-name="nav-arrow-dropdown-up"
      unicode="&#xEA61;"
      horiz-adv-x="100" d="M29.1666666666667 41.6666666666667L50 62.5L70.8333333333333 41.6666666666667z" />
    <glyph glyph-name="nav-chevron-down"
      unicode="&#xEA62;"
      horiz-adv-x="100" d="M69.125 64.2083333333333L50 45.125L30.875 64.2083333333333L25 58.3333333333333L50 33.3333333333333L75 58.3333333333333z" />
    <glyph glyph-name="nav-chevron-left"
      unicode="&#xEA63;"
      horiz-adv-x="100" d="M65.4375 69.125L59.5625 75L34.5625 50L59.5625 25L65.4375 30.875L46.3541666666667 50z" />
    <glyph glyph-name="nav-chevron-right"
      unicode="&#xEA64;"
      horiz-adv-x="100" d="M40.4375 75L34.5625 69.125L53.6458333333333 50L34.5625 30.875L40.4375 25L65.4375 50z" />
    <glyph glyph-name="nav-chevron-up"
      unicode="&#xEA65;"
      horiz-adv-x="100" d="M50 66.6666666666667L25 41.6666666666667L30.875 35.7916666666667L50 54.875L69.125 35.7916666666667L75 41.6666666666667z" />
    <glyph glyph-name="nav-more-horizontal"
      unicode="&#xEA66;"
      horiz-adv-x="100" d="M25 58.3333333333333C20.4166666666667 58.3333333333333 16.6666666666667 54.5833333333333 16.6666666666667 50S20.4166666666667 41.6666666666667 25 41.6666666666667S33.3333333333333 45.4166666666667 33.3333333333333 50S29.5833333333333 58.3333333333333 25 58.3333333333333zM75 58.3333333333333C70.4166666666667 58.3333333333333 66.6666666666667 54.5833333333333 66.6666666666667 50S70.4166666666667 41.6666666666667 75 41.6666666666667S83.3333333333333 45.4166666666667 83.3333333333333 50S79.5833333333333 58.3333333333333 75 58.3333333333333zM50 58.3333333333333C45.4166666666667 58.3333333333333 41.6666666666667 54.5833333333333 41.6666666666667 50S45.4166666666667 41.6666666666667 50 41.6666666666667S58.3333333333333 45.4166666666667 58.3333333333333 50S54.5833333333333 58.3333333333333 50 58.3333333333333z" />
    <glyph glyph-name="nav-more-vertical"
      unicode="&#xEA67;"
      horiz-adv-x="100" d="M50 66.6666666666667C54.5833333333333 66.6666666666667 58.3333333333333 70.4166666666667 58.3333333333333 75S54.5833333333333 83.3333333333333 50 83.3333333333333S41.6666666666667 79.5833333333333 41.6666666666667 75S45.4166666666667 66.6666666666667 50 66.6666666666667zM50 58.3333333333333C45.4166666666667 58.3333333333333 41.6666666666667 54.5833333333333 41.6666666666667 50S45.4166666666667 41.6666666666667 50 41.6666666666667S58.3333333333333 45.4166666666667 58.3333333333333 50S54.5833333333333 58.3333333333333 50 58.3333333333333zM50 33.3333333333333C45.4166666666667 33.3333333333333 41.6666666666667 29.5833333333333 41.6666666666667 25S45.4166666666667 16.6666666666667 50 16.6666666666667S58.3333333333333 20.4166666666667 58.3333333333333 25S54.5833333333333 33.3333333333333 50 33.3333333333333z" />
    <glyph glyph-name="nav-navicon"
      unicode="&#xEA68;"
      horiz-adv-x="100" d="M12.5 25H87.5V33.3333333333333H12.5V25zM12.5 45.8333333333333H87.5V54.1666666666667H12.5V45.8333333333333zM12.5 75V66.6666666666667H87.5V75H12.5z" />
    <glyph glyph-name="nav-select"
      unicode="&#xEA69;"
      horiz-adv-x="100" d="M50 24.2916666666667L36.7916666666667 37.5L30.9166666666667 31.625L50 12.5L69.125 31.625L63.2083333333333 37.5M50 75.7083333333333L63.2083333333333 62.5L69.0833333333333 68.375L50 87.5L30.875 68.375L36.7916666666667 62.5L50 75.7083333333333z" />
    <glyph glyph-name="content-vr"
      unicode="&#xEA6A;"
      horiz-adv-x="100" d="M83.3333333333333 75H16.6666666666667C12.0833333333333 75 8.3333333333333 71.25 8.3333333333333 66.6666666666667V33.3333333333333C8.3333333333333 28.75 12.0833333333333 25 16.6666666666667 25H43.75L46.6666666666667 28.75C48.3333333333333 30.8333333333333 51.6666666666667 30.8333333333333 53.3333333333333 28.75L56.25 25H83.3333333333333C87.9166666666667 25 91.6666666666667 28.75 91.6666666666667 33.3333333333333V66.6666666666667C91.6666666666667 71.25 87.9166666666667 75 83.3333333333333 75zM33.3333333333333 39.5833333333333C27.5 39.5833333333333 22.9166666666667 44.1666666666667 22.9166666666667 50C22.9166666666667 55.8333333333333 27.5 60.4166666666667 33.3333333333333 60.4166666666667S43.75 55.8333333333333 43.75 50C43.75 44.1666666666667 39.1666666666667 39.5833333333333 33.3333333333333 39.5833333333333zM66.6666666666667 39.5833333333333C60.8333333333333 39.5833333333333 56.25 44.1666666666667 56.25 50C56.25 55.8333333333333 60.8333333333333 60.4166666666667 66.6666666666667 60.4166666666667S77.0833333333333 55.8333333333333 77.0833333333333 50C77.0833333333333 44.1666666666667 72.5 39.5833333333333 66.6666666666667 39.5833333333333z" />
    <glyph glyph-name="device-tablet"
      unicode="&#xEA6B;"
      horiz-adv-x="100" d="M81.2500000000001 20.8333333333333H18.7500000000001V87.5H81.2500000000001M50.0000000000001 4.1666666666667A6.250000000000002 6.250000000000002 0 0 0 43.7500000000001 10.4166666666667A6.250000000000002 6.250000000000002 0 0 0 50.0000000000001 16.6666666666667A6.250000000000002 6.250000000000002 0 0 0 56.2500000000001 10.4166666666667A6.250000000000002 6.250000000000002 0 0 0 50.0000000000001 4.1666666666667M79.1666666666667 100H20.8333333333334A10.416666666666668 10.416666666666668 0 0 1 10.4166666666667 89.5833333333333V10.4166666666667A10.416666666666668 10.416666666666668 0 0 1 20.8333333333334 0H79.1666666666667A10.416666666666668 10.416666666666668 0 0 1 89.5833333333333 10.4166666666667V89.5833333333333A10.416666666666668 10.416666666666668 0 0 1 79.1666666666667 100z" />
    <glyph glyph-name="nav-chevron-left-large"
      unicode="&#xEA6C;"
      horiz-adv-x="100" d="M65.4166666666667 8.3333333333333L29.1666666666667 50L65.4166666666667 91.6666666666667L70.8333333333333 87.5L38.3333333333333 50L70.8333333333333 12.5z" />
    <glyph glyph-name="nav-chevron-right-large"
      unicode="&#xEA6D;"
      horiz-adv-x="100" d="M34.5833333333333 8.3333333333333L70.8333333333333 50L34.5833333333333 91.6666666666667L29.1666666666667 87.5L61.6666666666667 50L29.1666666666667 12.5z" />
    <glyph glyph-name="nav-chevron-down-large"
      unicode="&#xEA6E;"
      horiz-adv-x="100" d="M8.3333333333333 65.4166666666667L50 29.1666666666667L91.6666666666667 65.4166666666667L87.5 70.8333333333333L50 38.3333333333333L12.5 70.8333333333333z" />
    <glyph glyph-name="nav-chevron-up-large"
      unicode="&#xEA6F;"
      horiz-adv-x="100" d="M91.6666666666667 34.5833333333333L50 70.8333333333333L8.3333333333333 34.5833333333333L12.5 29.1666666666667L50 61.6666666666667L87.5 29.1666666666667z" />
    <glyph glyph-name="content-washing-machine"
      unicode="&#xEA70;"
      horiz-adv-x="100" d="M61.7916666666667 53.4583333333333C68.2916666666667 46.9583333333333 68.2916666666667 36.375 61.7916666666667 29.875C55.2916666666667 23.375 44.7083333333333 23.375 38.2083333333333 29.875L61.7916666666667 53.4583333333333M25 91.6666666666667H75A8.333333333333334 8.333333333333334 0 0 0 83.3333333333333 83.3333333333333V16.6666666666667A8.333333333333334 8.333333333333334 0 0 0 75 8.3333333333333H25A8.333333333333334 8.333333333333334 0 0 0 16.6666666666667 16.6666666666667V83.3333333333333A8.333333333333334 8.333333333333334 0 0 0 25 91.6666666666667M29.1666666666667 83.3333333333333A4.166666666666667 4.166666666666667 0 0 1 25 79.1666666666667A4.166666666666667 4.166666666666667 0 0 1 29.1666666666667 75A4.166666666666667 4.166666666666667 0 0 1 33.3333333333333 79.1666666666667A4.166666666666667 4.166666666666667 0 0 1 29.1666666666667 83.3333333333333M41.6666666666667 83.3333333333333A4.166666666666667 4.166666666666667 0 0 1 37.5 79.1666666666667A4.166666666666667 4.166666666666667 0 0 1 41.6666666666667 75A4.166666666666667 4.166666666666667 0 0 1 45.8333333333333 79.1666666666667A4.166666666666667 4.166666666666667 0 0 1 41.6666666666667 83.3333333333333M50 66.6666666666667A25.000000000000007 25.000000000000007 0 0 1 25 41.6666666666667A25.000000000000007 25.000000000000007 0 0 1 50 16.6666666666667A25.000000000000007 25.000000000000007 0 0 1 75 41.6666666666667A25.000000000000007 25.000000000000007 0 0 1 50 66.6666666666667z" />
    <glyph glyph-name="content-credit-card"
      unicode="&#xEA71;"
      horiz-adv-x="100" d="M83.3333333333333 66.6666666666667H16.6666666666667V75H83.3333333333333M83.3333333333333 25H16.6666666666667V50H83.3333333333333M83.3333333333333 83.3333333333333H16.6666666666667C12.0416666666667 83.3333333333333 8.3333333333333 79.625 8.3333333333333 75V25A8.333333333333334 8.333333333333334 0 0 1 16.6666666666667 16.6666666666667H83.3333333333333A8.333333333333334 8.333333333333334 0 0 1 91.6666666666667 25V75C91.6666666666667 79.625 87.9166666666667 83.3333333333333 83.3333333333333 83.3333333333333z" />
    <glyph glyph-name="content-sport"
      unicode="&#xEA72;"
      horiz-adv-x="100" d="M76.0416666666667 45.625C87.2916666666667 56.875 88.5416666666667 73.5416666666667 78.9583333333333 83.125S52.5 91.4583333333333 41.4583333333333 80.2083333333333C32.9166666666667 71.6666666666667 30.2083333333333 60 33.5416666666667 50.625L33.5416666666667 50.625C35.4166666666667 46.4583333333333 33.9583333333333 44.1666666666667 33.3333333333333 43.3333333333333L10.4166666666667 20.4166666666667L16.25 14.5833333333333L39.1666666666667 37.5C39.7916666666667 38.125 42.0833333333333 39.7916666666667 46.6666666666667 37.7083333333333L46.6666666666667 37.7083333333333C55.8333333333333 34.375 67.7083333333333 37.0833333333333 76.0416666666667 45.625zM44.375 48.5416666666667C37.9166666666667 55 39.375 66.6666666666667 47.2916666666667 74.5833333333333S66.875 83.75 73.3333333333333 77.5S78.3333333333333 59.375 70.4166666666667 51.4583333333333S50.625 42.0833333333333 44.375 48.5416666666667zM77.0833333333333 31.25C83.9583333333333 31.25 89.5833333333333 25.625 89.5833333333333 18.75S83.9583333333333 6.25 77.0833333333333 6.25S64.5833333333333 11.875 64.5833333333333 18.75S70.2083333333333 31.25 77.0833333333333 31.25z" />
    <glyph glyph-name="content-security"
      unicode="&#xEA73;"
      horiz-adv-x="100" d="M50 50H79.1666666666667C76.9583333333333 32.875 65.5 17.5833333333333 50 12.8333333333333V50H20.8333333333333V73.75L50 86.7083333333333M50 95.8333333333333L12.5 79.1666666666667V54.1666666666667C12.5 31.0416666666667 28.5 9.4583333333333 50 4.1666666666667C71.5 9.4583333333333 87.5 31.0416666666667 87.5 54.1666666666667V79.1666666666667L50 95.8333333333333z" />
    <glyph glyph-name="content-build"
      unicode="&#xEA74;"
      horiz-adv-x="100" d="M93.9583333333333 20.8333333333333L56.0416666666667 58.75C59.7916666666667 68.3333333333333 57.7083333333333 79.5833333333333 49.7916666666667 87.5C41.4583333333333 95.8333333333333 28.9583333333333 97.5 18.9583333333333 92.9166666666667L36.875 75L24.375 62.5L6.0416666666667 80.4166666666667C1.0416666666667 70.4166666666667 3.125 57.9166666666667 11.4583333333333 49.5833333333333C19.375 41.6666666666667 30.625 39.5833333333333 40.2083333333333 43.3333333333333L78.125 5.4166666666667C79.7916666666667 3.75 82.2916666666667 3.75 83.9583333333333 5.4166666666667L93.5416666666667 15C95.625 16.6666666666667 95.625 19.5833333333333 93.9583333333333 20.8333333333333z" />
    <glyph glyph-name="content-document"
      unicode="&#xEA75;"
      horiz-adv-x="100" d="M58.3333333333333 29.1666666666667H29.1666666666667V37.5H58.3333333333333M70.8333333333333 45.8333333333333H29.1666666666667V54.1666666666667H70.8333333333333M70.8333333333333 62.5H29.1666666666667V70.8333333333333H70.8333333333333M79.1666666666667 87.5H20.8333333333333C16.2083333333333 87.5 12.5 83.7916666666667 12.5 79.1666666666667V20.8333333333333A8.333333333333334 8.333333333333334 0 0 1 20.8333333333333 12.5H79.1666666666667A8.333333333333334 8.333333333333334 0 0 1 87.5 20.8333333333333V79.1666666666667C87.5 83.7916666666667 83.75 87.5 79.1666666666667 87.5z" />
    <glyph glyph-name="action-filter"
      unicode="&#xEA76;"
      horiz-adv-x="100" d="M41.6666666666667 25H58.3333333333333V33.3333333333333H41.6666666666667V25zM12.5 75V66.6666666666667H87.5V75H12.5zM25 45.8333333333333H75V54.1666666666667H25V45.8333333333333z" />
    <glyph glyph-name="action-card"
      unicode="&#xEA77;"
      horiz-adv-x="100" d="M14.5833333333334 54.1666666666667H35.4166666666667V79.1666666666667H14.5833333333334V54.1666666666667zM14.5833333333334 25H35.4166666666667V50H14.5833333333334V25zM39.5833333333334 25H60.4166666666667V50H39.5833333333334V25zM64.5833333333333 25H85.4166666666667V50H64.5833333333333V25zM39.5833333333334 54.1666666666667H60.4166666666667V79.1666666666667H39.5833333333334V54.1666666666667zM64.5833333333333 79.1666666666667V54.1666666666667H85.4166666666667V79.1666666666667H64.5833333333333z" />
    <glyph glyph-name="action-list"
      unicode="&#xEA78;"
      horiz-adv-x="100" d="M14.5833333333334 41.6666666666667H31.25V58.3333333333333H14.5833333333334V41.6666666666667zM14.5833333333334 20.8333333333333H31.25V37.5H14.5833333333334V20.8333333333333zM14.5833333333334 62.5H31.25V79.1666666666667H14.5833333333334V62.5zM35.4166666666667 41.6666666666667H85.4166666666667V58.3333333333333H35.4166666666667V41.6666666666667zM35.4166666666667 20.8333333333333H85.4166666666667V37.5H35.4166666666667V20.8333333333333zM35.4166666666667 79.1666666666667V62.5H85.4166666666667V79.1666666666667H35.4166666666667z" />
    <glyph glyph-name="action-cancel-thin"
      unicode="&#xEA79;"
      horiz-adv-x="100" d="M89.1666666666667 85.8333333333333L85.8333333333333 89.1666666666667L50 52.9166666666667L14.1666666666667 89.1666666666667L10.8333333333333 85.8333333333333L47.0833333333333 50L10.8333333333333 14.1666666666667L14.1666666666667 10.8333333333333L50 47.0833333333333L85.8333333333333 10.8333333333333L89.1666666666667 14.1666666666667L52.9166666666667 50z" />
    <glyph glyph-name="action-share-circle"
      unicode="&#xEA7A;"
      horiz-adv-x="100" d="M50 91.6666666666667C27.0833333333333 91.6666666666667 8.3333333333333 72.9166666666667 8.3333333333333 50S27.0833333333333 8.3333333333333 50 8.3333333333333S91.6666666666667 27.0833333333333 91.6666666666667 50S72.9166666666667 91.6666666666667 50 91.6666666666667zM55 32.9166666666667V43.75C42.0833333333333 43.75 32.9166666666667 39.5833333333333 26.25 30.4166666666666C28.75 43.3333333333333 36.6666666666667 56.25 55 59.1666666666667V69.5833333333333L73.3333333333333 51.25L55 32.9166666666667z" />
    <glyph glyph-name="action-play-circle-outline"
      unicode="&#xEA7B;"
      horiz-adv-x="100" d="M50 16.6666666666667C31.625 16.6666666666667 16.6666666666667 31.625 16.6666666666667 50C16.6666666666667 68.375 31.625 83.3333333333333 50 83.3333333333333C68.375 83.3333333333333 83.3333333333333 68.375 83.3333333333333 50C83.3333333333333 31.625 68.375 16.6666666666667 50 16.6666666666667M50 91.6666666666667A41.66666666666667 41.66666666666667 0 0 1 8.3333333333333 50A41.66666666666667 41.66666666666667 0 0 1 50 8.3333333333333A41.66666666666667 41.66666666666667 0 0 1 91.6666666666667 50A41.66666666666667 41.66666666666667 0 0 1 50 91.6666666666667M41.6666666666667 31.25L66.6666666666667 50L41.6666666666667 68.75V31.25z" />
    <glyph glyph-name="content-announcement"
      unicode="&#xEA7C;"
      horiz-adv-x="100" d="M83.3333333333333 91.6666666666667H16.6666666666667C12.0833333333333 91.6666666666667 8.375 87.9166666666667 8.375 83.3333333333333L8.3333333333333 8.3333333333333L25 25H83.3333333333333C87.9166666666667 25 91.6666666666667 28.75 91.6666666666667 33.3333333333333V83.3333333333333C91.6666666666667 87.9166666666667 87.9166666666667 91.6666666666667 83.3333333333333 91.6666666666667zM54.1666666666667 54.1666666666667H45.8333333333333V79.1666666666667H54.1666666666667V54.1666666666667zM54.1666666666667 37.5H45.8333333333333V45.8333333333333H54.1666666666667V37.5z" />
    <glyph glyph-name="nav-dots-horizontal"
      unicode="&#xEA80;"
      horiz-adv-x="100" d="M66.6666666666667 50A8.333333333333334 8.333333333333334 0 0 0 75 58.3333333333333A8.333333333333334 8.333333333333334 0 0 0 83.3333333333333 50A8.333333333333334 8.333333333333334 0 0 0 75 41.6666666666667A8.333333333333334 8.333333333333334 0 0 0 66.6666666666667 50M41.6666666666667 50A8.333333333333334 8.333333333333334 0 0 0 50 58.3333333333333A8.333333333333334 8.333333333333334 0 0 0 58.3333333333333 50A8.333333333333334 8.333333333333334 0 0 0 50 41.6666666666667A8.333333333333334 8.333333333333334 0 0 0 41.6666666666667 50M16.6666666666667 50A8.333333333333334 8.333333333333334 0 0 0 25 58.3333333333333A8.333333333333334 8.333333333333334 0 0 0 33.3333333333333 50A8.333333333333334 8.333333333333334 0 0 0 25 41.6666666666667A8.333333333333334 8.333333333333334 0 0 0 16.6666666666667 50z" />
    <glyph glyph-name="content-marker"
      unicode="&#xEA81;"
      horiz-adv-x="100" d="M50 52.5C43.125 52.5 37.5 58.125 37.5 65S43.125 77.5 50 77.5S62.5 71.875 62.5 65S56.875 52.5 50 52.5zM50 100C30.625 100 15 84.375 15 65C15 38.75 50 0 50 0S85 38.75 85 65C85 84.375 69.375 100 50 100z" />
    <glyph glyph-name="content-security-home"
      unicode="&#xEA82;"
      horiz-adv-x="100" d="M45.8333333333333 45.8333333333333H54.1666666666667V33.3333333333333H66.6666666666667V54.1666666666667H75L50 75L25 54.1666666666667H33.3333333333333V33.3333333333333H45.8333333333333V45.8333333333333M50 95.8333333333333L87.5 79.1666666666667V54.1666666666667C87.5 31.0416666666667 71.5 9.4166666666667 50 4.1666666666667C28.5 9.4166666666667 12.5 31.0416666666667 12.5 54.1666666666667V79.1666666666667L50 95.8333333333333z" />
    <glyph glyph-name="content-ping-pong"
      unicode="&#xEA83;"
      horiz-adv-x="100" d="M58.125 90.4166666666667C58.125 90.4166666666667 54.7916666666666 91.25 50.625 91.25C46.4583333333333 91.25 43.5416666666666 90.4166666666667 43.5416666666666 90.4166666666667S21.875 86.6666666666667 21.875 67.0833333333333V51.25C21.875 46.25 23.125 42.5 25.2083333333333 39.5833333333333H76.0416666666666C78.125 42.5 79.375 46.25 79.375 51.25V67.0833333333333C79.375 86.6666666666667 58.125 90.4166666666667 58.125 90.4166666666667zM27.2916666666666 37.0833333333333C33.5416666666666 30.4166666666667 43.5416666666666 29.5833333333333 43.5416666666666 29.5833333333333V7.5H57.7083333333333V29.5833333333333C57.7083333333333 29.5833333333333 67.7083333333333 30.4166666666667 73.9583333333333 37.5C74.375 37.0833333333333 27.2916666666666 37.0833333333333 27.2916666666666 37.0833333333333zM20.625 12.5C20.625 9.738576250846 22.863576250846 7.5 25.625 7.5C28.3864237491539 7.5 30.625 9.738576250846 30.625 12.5C30.625 15.261423749154 28.3864237491539 17.5 25.625 17.5C22.863576250846 17.5 20.625 15.261423749154 20.625 12.5z" />
    <glyph glyph-name="content-bank"
      unicode="&#xEA84;"
      horiz-adv-x="100" d="M50.0000000000001 95.8333333333333L10.4166666666667 75V66.6666666666667H89.5833333333333V75M68.7500000000001 58.3333333333333V29.1666666666667H81.2500000000001V58.3333333333333M10.4166666666667 8.3333333333333H89.5833333333333V20.8333333333333H10.4166666666667M43.7500000000001 58.3333333333333V29.1666666666667H56.2500000000001V58.3333333333333M18.7500000000001 58.3333333333333V29.1666666666667H31.2500000000001V58.3333333333333H18.7500000000001z" />
  </font>
</defs>
</svg>
